<?xml version="1.0" encoding="utf-8"?>
<!-- Generator: Adobe Illustrator 16.0.0, SVG Export Plug-In . SVG Version: 6.00 Build 0)  -->
<!DOCTYPE svg PUBLIC "-//W3C//DTD SVG 1.1//EN" "http://www.w3.org/Graphics/SVG/1.1/DTD/svg11.dtd">
<svg version="1.1" id="Layer_1" xmlns="http://www.w3.org/2000/svg" xmlns:xlink="http://www.w3.org/1999/xlink" x="0px" y="0px"
	 width="335.986px" height="235.19px" viewBox="0 0 335.986 235.19" enable-background="new 0 0 335.986 235.19"
	 xml:space="preserve">
<g>
	<g>
		<rect fill="#33B7C2" width="335.986" height="235.19"/>
	</g>
</g>
<text transform="matrix(1.139 0 0 1 104.5664 40.959)" fill="#FFFFFF" font-family="'GloberBold'" font-size="14.3996">15%</text>
<g>
	<path fill="#FFFFFF" d="M292.981,95.535c2.215-0.201,3.461-0.907,3.986-2.535c-0.476,0.115-1.033,0.188-1.706,0.188
		c-1.887,0-3.444-0.85-3.444-3.068c0-2.132,1.443-3.067,3.772-3.067c2.312,0,3.772,1.152,3.772,3.846
		c0,4.033-2.312,5.877-6.381,6.093C292.769,96.472,292.769,95.996,292.981,95.535z M295.623,91.776c0.606,0,1.197-0.115,1.591-0.217
		c0.017-0.23,0.032-0.461,0.032-0.72c0-1.758-0.655-2.405-1.656-2.405s-1.641,0.504-1.641,1.685
		C293.949,91.372,294.655,91.776,295.623,91.776z"/>
	<path fill="#FFFFFF" d="M301.051,94.498c0-1.268,1.017-2.03,1.951-2.478c-0.918-0.489-1.64-1.195-1.64-2.42
		c0-1.556,1.328-2.549,3.592-2.549c2.149,0,3.478,0.85,3.478,2.391c0,1.138-0.722,1.858-1.46,2.319
		c1.066,0.519,1.952,1.253,1.952,2.593c0,1.801-1.477,2.779-4.019,2.779C302.56,97.134,301.051,96.241,301.051,94.498z
		 M306.824,94.44c0-0.979-1.279-1.368-2.592-1.872c-0.524,0.331-1.214,0.922-1.214,1.858c0,0.82,0.706,1.296,1.952,1.296
		C306.069,95.723,306.824,95.262,306.824,94.44z M303.38,89.485c0,0.879,1.099,1.282,2.312,1.743
		c0.443-0.346,0.902-0.85,0.902-1.628c0-0.777-0.574-1.21-1.641-1.21C303.938,88.391,303.38,88.809,303.38,89.485z"/>
	<path fill="#FFFFFF" d="M310.334,89.528c0-1.771,0.836-2.491,2.296-2.491c1.443,0,2.313,0.691,2.313,2.491
		c0,1.801-0.87,2.492-2.313,2.492C311.17,92.021,310.334,91.329,310.334,89.528z M311.794,89.528c0,1.268,0.295,1.484,0.836,1.484
		c0.525,0,0.82-0.217,0.82-1.484c0-1.238-0.295-1.498-0.82-1.498C312.089,88.03,311.794,88.29,311.794,89.528z M313.729,97.033
		c0,0-0.246,0.101-0.771,0.101c-0.509,0-0.771-0.101-0.771-0.101l6.315-10.054c0,0,0.245-0.102,0.771-0.102
		c0.509,0,0.771,0.102,0.771,0.102L313.729,97.033z M317.19,94.643c0-1.772,0.836-2.492,2.296-2.492
		c1.443,0,2.313,0.691,2.313,2.492c0,1.8-0.87,2.491-2.313,2.491C318.026,97.134,317.19,96.442,317.19,94.643z M318.65,94.643
		c0,1.268,0.295,1.483,0.836,1.483c0.525,0,0.82-0.216,0.82-1.483c0-1.239-0.295-1.498-0.82-1.498
		C318.945,93.145,318.65,93.403,318.65,94.643z"/>
</g>
<g>
	<path fill="#FFFFFF" d="M25.284,210.374c0.181-0.015,0.377-0.015,0.607-0.015c2.46,0,3.821,0.893,3.821,3.011
		c0,1.973-1.41,3.053-4.297,3.053c-2.018,0-2.838-0.518-2.838-0.518c-0.033-0.49,0.164-1.037,0.508-1.34
		c0,0,0.854,0.303,2.133,0.303c1.477,0,2.362-0.404,2.362-1.498c0-1.282-0.771-1.527-2.478-1.527c-0.623,0-1.229,0.015-1.854,0.058
		v-5.416h5.987c0.214,0.519,0.214,1.124,0,1.585h-3.953V210.374z"/>
	<path fill="#FFFFFF" d="M38.077,206.484c0.115,0.331,0.132,0.677,0.115,1.009c-0.164,3.27-3.97,4.264-3.97,8.699
		c-0.295,0.059-0.64,0.087-0.984,0.087c-0.344,0-0.705-0.028-1-0.087c0-4.725,3.215-5.79,3.871-8.095h-4.905
		c0,0-0.147-0.317-0.147-0.821c0-0.519,0.147-0.792,0.147-0.792H38.077z"/>
	<path fill="#FFFFFF" d="M39.273,208.817c0-1.771,0.836-2.491,2.296-2.491c1.443,0,2.313,0.691,2.313,2.491
		c0,1.801-0.87,2.492-2.313,2.492C40.109,211.31,39.273,210.618,39.273,208.817z M40.733,208.817c0,1.268,0.295,1.484,0.836,1.484
		c0.525,0,0.82-0.217,0.82-1.484c0-1.238-0.295-1.498-0.82-1.498C41.028,207.319,40.733,207.579,40.733,208.817z M42.669,216.322
		c0,0-0.246,0.101-0.771,0.101c-0.509,0-0.771-0.101-0.771-0.101l6.315-10.054c0,0,0.245-0.102,0.771-0.102
		c0.509,0,0.771,0.102,0.771,0.102L42.669,216.322z M46.13,213.932c0-1.772,0.836-2.492,2.296-2.492
		c1.443,0,2.313,0.691,2.313,2.492c0,1.8-0.87,2.491-2.313,2.491C46.966,216.423,46.13,215.731,46.13,213.932z M47.59,213.932
		c0,1.268,0.295,1.483,0.836,1.483c0.525,0,0.82-0.216,0.82-1.483c0-1.239-0.295-1.498-0.82-1.498
		C47.885,212.434,47.59,212.692,47.59,213.932z"/>
</g>
<g id="XMLID_479_">
	<path id="XMLID_498_" fill="#FFFFFF" d="M187.189,15.192H153.2c-3.788,0-6.858,3.072-6.858,6.857v13.777
		c0,3.787,3.07,6.857,6.858,6.857h12.534l4.688,10.078l4.502-10.078h12.266c3.789,0,6.86-3.07,6.86-6.857V22.05
		C194.05,18.265,190.979,15.192,187.189,15.192z"/>
	<g id="XMLID_480_">
		<g>
			<circle id="XMLID_25_" fill="#329AA5" cx="161.95" cy="29.743" r="2.117"/>
			<circle id="XMLID_24_" fill="#329AA5" cx="170.196" cy="29.743" r="2.116"/>
			<path id="XMLID_23_" fill="#329AA5" d="M180.557,29.743c0,1.169-0.945,2.117-2.117,2.117c-1.166,0-2.117-0.948-2.117-2.117
				c0-1.168,0.951-2.117,2.117-2.117C179.611,27.626,180.557,28.575,180.557,29.743z"/>
		</g>
	</g>
</g>
<g id="XMLID_377_">
	<path id="XMLID_399_" fill="#1C3240" d="M299.969,117.145c-0.306-3.417-3.174-6.096-6.672-6.096c-1.312,0-2.535,0.384-3.567,1.037
		c-2.062-3.24-5.682-5.391-9.808-5.391c-6.237,0-11.324,4.916-11.605,11.084c-2.945,1.329-4.999,4.289-4.999,7.732
		c0,4.682,3.798,8.477,8.479,8.477h26.791c4.684,0,8.48-3.795,8.48-8.477C307.068,121.299,303.994,117.805,299.969,117.145z"/>
	<g id="XMLID_383_">
		<polygon id="XMLID_384_" fill="#FFFFFF" points="290.842,125.357 285.192,115.572 279.544,125.357 283.143,125.357 
			283.143,128.482 287.245,128.48 287.242,125.357 		"/>
	</g>
</g>
<g id="XMLID_71_">
	<path id="XMLID_154_" fill="#1C3240" d="M119.342,202.119c-0.306-3.417-3.174-6.096-6.672-6.096c-1.312,0-2.535,0.384-3.567,1.037
		c-2.062-3.24-5.682-5.391-9.808-5.391c-6.237,0-11.324,4.916-11.605,11.084c-2.945,1.329-4.999,4.289-4.999,7.732
		c0,4.682,3.798,8.477,8.479,8.477h26.791c4.684,0,8.48-3.795,8.48-8.477C126.441,206.273,123.367,202.779,119.342,202.119z"/>
	<g id="XMLID_143_">
		<polygon id="XMLID_147_" fill="#FFFFFF" points="110.215,210.332 104.565,200.547 98.917,210.332 102.516,210.332 
			102.516,213.457 106.618,213.455 106.615,210.332 		"/>
	</g>
</g>
<path fill="#FFFFFF" d="M278.634,77.886c1.596-0.357,3.062-1.044,4.319-1.979l2.339,2.061l2.785-3.158l-2.252-1.991
	c0.851-1.352,1.431-2.882,1.658-4.527l3.026-0.191l-0.266-4.201l-2.954,0.185c-0.374-1.624-1.091-3.105-2.068-4.38l1.999-2.27
	l-3.158-2.781l-1.975,2.238c-1.357-0.832-2.9-1.379-4.538-1.582l-0.196-3.09l-4.203,0.267l0.198,3.07
	c-1.581,0.393-3.021,1.107-4.255,2.069l-2.405-2.119l-2.785,3.164l2.384,2.102c-0.793,1.318-1.327,2.811-1.537,4.395l-3.277,0.208
	l0.268,4.205l3.22-0.202c0.376,1.546,1.056,2.963,1.976,4.192l-2.176,2.471l3.162,2.786l2.119-2.404
	c1.31,0.822,2.797,1.385,4.383,1.615l0.204,3.218l4.204-0.262L278.634,77.886z M276.328,70.957
	c-2.358,0.113-4.357-1.704-4.476-4.062c-0.111-2.354,1.704-4.357,4.058-4.472c2.362-0.113,4.358,1.703,4.479,4.058
	C280.501,68.84,278.683,70.843,276.328,70.957"/>
<path fill="#1C3240" d="M263.504,52.078c2.002-0.617,3.805-1.646,5.314-2.968l3.197,2.395l3.238-4.314l-3.08-2.317
	c0.947-1.813,1.532-3.825,1.654-5.955l3.847-0.55l-0.768-5.338l-3.754,0.535c-0.643-2.037-1.711-3.855-3.087-5.382l2.319-3.104
	l-4.317-3.233l-2.289,3.065c-1.823-0.925-3.847-1.468-5.962-1.562l-0.567-3.924l-5.342,0.766l0.568,3.902
	c-1.979,0.664-3.744,1.723-5.223,3.077l-3.287-2.461l-3.236,4.325l3.257,2.443c-0.877,1.762-1.408,3.723-1.514,5.768l-4.161,0.602
	l0.765,5.342l4.094-0.587c0.64,1.936,1.649,3.677,2.95,5.154l-2.527,3.379l4.322,3.233l2.464-3.283
	c1.755,0.915,3.713,1.482,5.761,1.613l0.591,4.092l5.344-0.766L263.504,52.078z M259.851,43.464c-3,0.386-5.737-1.73-6.128-4.731
	c-0.385-2.997,1.731-5.738,4.727-6.123c3.005-0.389,5.739,1.729,6.135,4.727C264.966,40.333,262.85,43.08,259.851,43.464"/>
<path fill="#E6003C" d="M311.033,53.368c1.281-1.13,2.379-2.411,3.266-3.8l4.142,1.95l1.795-3.808l-4.104-1.935
	c0.559-1.605,0.885-3.277,0.98-4.971l4.447-0.367l-0.352-4.199l-4.363,0.359c-0.303-1.669-0.846-3.315-1.641-4.883l3.51-2.436
	l-2.398-3.459l-3.433,2.381c-1.158-1.377-2.494-2.541-3.944-3.484l1.738-3.678l-3.807-1.793l-1.705,3.605
	c-1.688-0.602-3.459-0.953-5.252-1.038l-0.319-3.888l-4.198,0.348l0.318,3.843c-1.746,0.332-3.465,0.927-5.091,1.796l-2.186-3.146
	l-3.463,2.404l2.182,3.146c-1.388,1.217-2.548,2.618-3.469,4.137l-3.491-1.647l-1.795,3.809l3.532,1.67
	c-0.556,1.705-0.849,3.484-0.878,5.277l-3.978,0.33l0.347,4.193l4.054-0.332c0.372,1.686,0.993,3.341,1.875,4.913l-3.431,2.38
	l2.397,3.461l3.511-2.434c1.194,1.295,2.537,2.381,4,3.251l-1.87,3.962l3.81,1.794l1.9-4.029c1.627,0.508,3.303,0.784,4.998,0.826
	l0.375,4.525l4.195-0.349l-0.376-4.562c1.616-0.342,3.196-0.918,4.71-1.725l2.625,3.791l3.465-2.397L311.033,53.368z
	 M302.812,45.424c-2.988,2.075-7.104,1.329-9.178-1.665c-2.076-2.998-1.333-7.105,1.666-9.182c2.995-2.078,7.102-1.332,9.178,1.66
	C306.556,39.229,305.812,43.346,302.812,45.424"/>
<rect x="162.178" y="168.297" fill-rule="evenodd" clip-rule="evenodd" fill="#1C3240" width="27.357" height="11.863"/>
<path fill-rule="evenodd" clip-rule="evenodd" fill="#F5F5F5" d="M111.834,62.932h128.029c7.354,0,13.373,6.021,13.373,13.378
	v81.029c0,7.35-6.029,13.368-13.373,13.368h-45.79v0.89c0,0.886-0.717,1.599-1.592,1.599h-33.252c-0.896,0-1.614-0.713-1.614-1.599
	v-0.89h-45.781c-7.352,0-13.363-6.019-13.363-13.368V76.31C98.471,68.942,104.468,62.932,111.834,62.932z"/>
<path fill-rule="evenodd" clip-rule="evenodd" fill="#1C3240" d="M113.729,66.85h124.24c5.855,0,10.65,4.81,10.65,10.659v78.631
	c0,5.851-4.81,10.646-10.65,10.646h-124.24c-5.84,0-10.65-4.795-10.65-10.646V77.509C103.078,71.659,107.865,66.85,113.729,66.85z"
	/>
<path fill-rule="evenodd" clip-rule="evenodd" fill="#F5F5F5" d="M129.548,178.399h92.595c0.672,0,1.209,0.541,1.209,1.199v2.466
	c0,0.664-0.537,1.199-1.209,1.199h-92.595c-0.649,0-1.192-0.535-1.192-1.199v-2.466C128.355,178.94,128.898,178.399,129.548,178.399
	z"/>
<g>
	<path fill-rule="evenodd" clip-rule="evenodd" fill="#1C3240" d="M24.899,13.644h61.896c2.922,0,5.311,2.399,5.311,5.311v52.014
		c0,2.909-2.4,5.305-5.311,5.305H24.899c-2.91,0-5.306-2.386-5.306-5.305V18.954C19.594,16.035,21.983,13.644,24.899,13.644z"/>
	<path fill-rule="evenodd" clip-rule="evenodd" fill="#F5F5F5" d="M24.899,25.22c-1.639,0-2.994,1.361-2.994,2.99v42.758
		c0,1.623,1.355,2.993,2.994,2.993h61.896c1.635,0,2.994-1.364,2.994-2.993V28.21c0-1.633-1.365-2.99-2.994-2.99H24.899z"/>
	<path fill-rule="evenodd" clip-rule="evenodd" fill="#FFFFFF" d="M86.354,21.712c1.252,0,2.277-1.02,2.277-2.277
		c0-1.256-1.025-2.287-2.277-2.287c-1.256,0-2.287,1.031-2.287,2.287C84.067,20.692,85.099,21.712,86.354,21.712z"/>
	<path fill-rule="evenodd" clip-rule="evenodd" fill="#FFFFFF" d="M78.247,21.712c1.256,0,2.281-1.02,2.281-2.277
		c0-1.256-1.025-2.287-2.281-2.287s-2.283,1.031-2.283,2.287C75.964,20.692,76.991,21.712,78.247,21.712z"/>
	<path fill-rule="evenodd" clip-rule="evenodd" fill="#FFFFFF" d="M70.148,21.712c1.258,0,2.277-1.02,2.277-2.277
		c0-1.256-1.02-2.287-2.277-2.287c-1.256,0-2.286,1.031-2.286,2.287C67.862,20.692,68.893,21.712,70.148,21.712z"/>
</g>
<g>
	<path fill-rule="evenodd" clip-rule="evenodd" fill="#1C3240" d="M245.618,145.952h61.896c2.922,0,5.311,2.399,5.311,5.311v52.014
		c0,2.909-2.4,5.305-5.311,5.305h-61.896c-2.91,0-5.306-2.386-5.306-5.305v-52.014C240.312,148.344,242.702,145.952,245.618,145.952
		z"/>
	<path fill-rule="evenodd" clip-rule="evenodd" fill="#F5F5F5" d="M245.618,157.528c-1.639,0-2.994,1.361-2.994,2.99v42.758
		c0,1.623,1.355,2.993,2.994,2.993h61.896c1.635,0,2.994-1.364,2.994-2.993v-42.758c0-1.633-1.365-2.99-2.994-2.99H245.618z"/>
	<path fill-rule="evenodd" clip-rule="evenodd" fill="#FFFFFF" d="M307.073,154.021c1.252,0,2.277-1.02,2.277-2.277
		c0-1.256-1.025-2.287-2.277-2.287c-1.256,0-2.287,1.031-2.287,2.287C304.786,153.001,305.817,154.021,307.073,154.021z"/>
	<path fill-rule="evenodd" clip-rule="evenodd" fill="#FFFFFF" d="M298.966,154.021c1.256,0,2.281-1.02,2.281-2.277
		c0-1.256-1.025-2.287-2.281-2.287s-2.283,1.031-2.283,2.287C296.683,153.001,297.71,154.021,298.966,154.021z"/>
	<path fill-rule="evenodd" clip-rule="evenodd" fill="#FFFFFF" d="M290.867,154.021c1.258,0,2.277-1.02,2.277-2.277
		c0-1.256-1.02-2.287-2.277-2.287c-1.256,0-2.286,1.031-2.286,2.287C288.581,153.001,289.611,154.021,290.867,154.021z"/>
</g>
<g id="Custom_Coding_3_">
	<g>
		<path fill="#FFFFFF" d="M186.36,88.371h-7.055c-0.436,0-0.825,0.393-0.98,0.98l-13.871,53.438
			c-0.121,0.458-0.07,0.979,0.122,1.385c0.196,0.406,0.518,0.646,0.862,0.646h7.051c0.439,0,0.828-0.389,0.984-0.975l13.867-53.439
			c0.125-0.464,0.074-0.983-0.119-1.389C187.026,88.614,186.704,88.371,186.36,88.371z"/>
		<path fill="#FFFFFF" d="M162.3,95.248c0.305,0.277,0.494,0.762,0.494,1.283v8.767c0,0.587-0.237,1.125-0.605,1.372l-15.234,10.135
			l15.189,8.966c0.393,0.227,0.65,0.778,0.65,1.39v8.732c0,0.514-0.184,0.989-0.475,1.264c-0.172,0.16-0.371,0.243-0.574,0.243
			c-0.143,0-0.288-0.044-0.424-0.124l-25.277-16.012c-0.375-0.24-0.619-0.781-0.619-1.377v-5.227c0-0.57,0.22-1.094,0.575-1.346
			l25.278-18.129C161.606,94.951,161.988,94.971,162.3,95.248z M215.694,113.314l-25.278-18.129
			c-0.325-0.234-0.71-0.215-1.019,0.062c-0.308,0.277-0.497,0.762-0.497,1.283v8.767c0,0.587,0.237,1.125,0.608,1.372l15.23,10.135
			l-15.189,8.966c-0.396,0.227-0.649,0.778-0.649,1.39v8.732c0,0.514,0.176,0.989,0.478,1.264c0.172,0.16,0.371,0.243,0.574,0.243
			c0.143,0,0.285-0.044,0.42-0.124l25.271-16.012c0.382-0.24,0.629-0.781,0.629-1.377v-5.227
			C216.272,114.09,216.046,113.566,215.694,113.314z"/>
	</g>
</g>
<path fill="#E6003C" d="M76.188,187.102c11.218-11.321,11.427-29.369,0.208-40.696l-20.453,20.454L76.188,187.102z"/>
<path fill="#F1F2F2" d="M53.079,162.095l20.146-20.144c0,0-0.015-0.019-0.046-0.051c-5.544-5.542-12.812-8.359-20.075-8.405"/>
<path fill="#E6E7E8" d="M67.341,187.075l-20.146-20.146l0.153-28.781c-7.394-0.05-14.725,2.666-20.363,8.304
	c-11.181,11.183-11.143,29.274,0.036,40.457c11.184,11.183,29.177,11.314,40.358,0.133
	C67.412,187.008,67.341,187.075,67.341,187.075z"/>
<path fill="none" stroke="#231F20" stroke-width="2" stroke-linejoin="round" stroke-miterlimit="10" d="M74.728,180.287"/>
<path fill="none" stroke="#231F20" stroke-width="2" stroke-linejoin="round" stroke-miterlimit="10" d="M54.541,160.176"/>
<path fill="none" stroke="#231F20" stroke-width="2" stroke-linejoin="round" stroke-miterlimit="10" d="M74.896,139.625"/>
<path fill="none" stroke="#231F20" stroke-width="2" stroke-linejoin="round" stroke-miterlimit="10" d="M54.512,128.169"/>
<path fill="none" stroke="#231F20" stroke-width="2" stroke-linejoin="round" stroke-miterlimit="10" d="M54.512,160.355"/>
<g opacity="0.5">
	<g>
		<rect x="29.248" y="52.228" fill="#7371A6" width="51.555" height="7.527"/>
	</g>
</g>
<g opacity="0.5">
	<g>
		<rect x="29.248" y="63.255" fill="#7371A6" width="38.672" height="4.38"/>
	</g>
</g>
<g opacity="0.5">
	<g>
		<rect x="29.248" y="31.796" fill="#7371A6" width="51.555" height="5.801"/>
	</g>
</g>
<g opacity="0.5">
	<g>
		<rect x="29.248" y="41.808" fill="#7371A6" width="32.112" height="5.802"/>
	</g>
</g>
<g opacity="0.5">
	<g>
		<rect x="250.214" y="184.411" fill="#7371A6" width="51.555" height="7.527"/>
	</g>
</g>
<g opacity="0.5">
	<g>
		<rect x="250.214" y="195.438" fill="#7371A6" width="38.672" height="4.38"/>
	</g>
</g>
<g opacity="0.5">
	<g>
		<rect x="250.214" y="163.979" fill="#7371A6" width="38.672" height="5.801"/>
	</g>
</g>
<g opacity="0.5">
	<g>
		<rect x="250.214" y="173.991" fill="#7371A6" width="51.555" height="5.802"/>
	</g>
</g>
<path fill-rule="evenodd" clip-rule="evenodd" fill="#E6003C" d="M80.915,53.596h61.247c4.236,0,7.702,3.468,7.702,7.69v25.1
	c0,4.227-3.473,7.695-7.702,7.695c-26.885,0-34.344,0-61.247,0c-4.231,0-7.69-3.453-7.69-7.695v-25.1
	C73.225,57.056,76.684,53.596,80.915,53.596z"/>
<g id="Sliders_1_">
	<path fill="#FFFFFF" d="M20.146,101.052c-0.4,0-0.725-0.248-0.725-0.556v-2.95c0-0.308,0.324-0.556,0.725-0.556h54.312
		c0.399,0,0.721,0.248,0.721,0.556v2.95c0,0.308-0.321,0.556-0.721,0.556H20.146z"/>
	<path fill="#4C4846" d="M57.623,105.851c-0.399,0-0.721-0.248-0.721-0.553V92.745c0-0.306,0.321-0.553,0.721-0.553h6.021
		c0.397,0,0.723,0.247,0.723,0.553v12.553c0,0.305-0.325,0.553-0.723,0.553H57.623z"/>
	<path fill="#FFFFFF" d="M20.146,115.54c-0.4,0-0.725-0.248-0.725-0.553v-2.953c0-0.306,0.324-0.553,0.725-0.553h54.312
		c0.399,0,0.721,0.247,0.721,0.553v2.953c0,0.305-0.321,0.553-0.721,0.553H20.146z"/>
	<path fill="#6099CD" d="M42.814,120.342c-0.4,0-0.725-0.251-0.725-0.556v-12.552c0-0.304,0.324-0.554,0.725-0.554h6.021
		c0.397,0,0.722,0.25,0.722,0.554v12.552c0,0.305-0.324,0.556-0.722,0.556H42.814z"/>
</g>
<g id="Sliders_2_">
	<path fill="#FFFFFF" d="M214.118,212.218c0.4,0,0.725,0.248,0.725,0.556v2.95c0,0.308-0.324,0.556-0.725,0.556h-57.312
		c-0.399,0-0.721-0.248-0.721-0.556v-2.95c0-0.308,0.321-0.556,0.721-0.556H214.118z"/>
	<path fill="#E6003C" d="M173.642,207.419c0.399,0,0.721,0.248,0.721,0.553v12.553c0,0.306-0.321,0.553-0.721,0.553h-6.021
		c-0.397,0-0.723-0.247-0.723-0.553v-12.553c0-0.305,0.325-0.553,0.723-0.553H173.642z"/>
	<path fill="#FFFFFF" d="M214.118,197.729c0.4,0,0.725,0.248,0.725,0.553v2.953c0,0.306-0.324,0.553-0.725,0.553h-57.312
		c-0.399,0-0.721-0.247-0.721-0.553v-2.953c0-0.305,0.321-0.553,0.721-0.553H214.118z"/>
	<path fill="#1C3240" d="M188.45,192.928c0.4,0,0.725,0.251,0.725,0.556v12.552c0,0.304-0.324,0.554-0.725,0.554h-6.021
		c-0.397,0-0.722-0.25-0.722-0.554v-12.552c0-0.305,0.324-0.556,0.722-0.556H188.45z"/>
</g>
</svg>
