<?xml version="1.0" encoding="utf-8"?>
<!-- Generator: Adobe Illustrator 21.0.0, SVG Export Plug-In . SVG Version: 6.00 Build 0)  -->
<svg version="1.1" xmlns="http://www.w3.org/2000/svg" xmlns:xlink="http://www.w3.org/1999/xlink" x="0px" y="0px"
	 viewBox="0 0 1400 980" style="enable-background:new 0 0 1400 980;" xml:space="preserve">
<style type="text/css">
	.st0{fill:#14151F;}
	.st1{fill:#FFFFFF;}
	.st2{fill:#93C2CA;stroke:#000000;stroke-width:3;stroke-miterlimit:10;}
	.st3{fill:#F39E89;stroke:#000000;stroke-width:3;stroke-miterlimit:10;}
	.st4{fill:#B2D88B;stroke:#000000;stroke-width:3;stroke-miterlimit:10;}
	.st5{fill:#FFFFFF;stroke:#000000;stroke-width:3;stroke-miterlimit:10;}
	.st6{fill:none;stroke:#000000;stroke-width:4;stroke-miterlimit:10;}
	.st7{opacity:0.1;}
	.st8{fill:#FFFFFF;stroke:#000000;stroke-width:3;stroke-linecap:round;stroke-linejoin:round;stroke-miterlimit:10;}
	.st9{fill:#EE6542;stroke:#000000;stroke-width:3;stroke-miterlimit:10;}
	.st10{fill:none;stroke:#000000;stroke-width:3;stroke-linecap:round;stroke-linejoin:round;stroke-miterlimit:10;}
	.st11{fill:#EE6542;}
	.st12{fill:none;stroke:#000000;stroke-width:3;stroke-linejoin:round;stroke-miterlimit:10;}
	.st13{fill:#007AB3;stroke:#000000;stroke-width:3;stroke-miterlimit:10;}
	.st14{fill:none;stroke:#000000;stroke-width:3;stroke-miterlimit:10;}
	.st15{fill:#004854;stroke:#000000;stroke-width:3;stroke-miterlimit:10;}
	.st16{fill:#FFFFFF;stroke:#000000;stroke-width:3;stroke-linecap:round;stroke-linejoin:round;}
	.st17{fill:#F36E65;stroke:#000000;stroke-width:3;stroke-miterlimit:10;}
	.st18{fill:#23BCA7;stroke:#000000;stroke-width:3;stroke-linecap:round;stroke-linejoin:round;stroke-miterlimit:10;}
	.st19{fill:#FFE6A6;stroke:#000000;stroke-width:3;stroke-miterlimit:10;}
</style>
<g id="Layer_2">
	<rect x="0" y="0" class="st0" width="1400" height="980"/>
	<rect x="0" y="0" class="st1" width="1400" height="980"/>
</g>
<g id="Layer_11">
	<g>
		<g>
			<g>
				<path class="st2" d="M355.9,257.1c0.5-15.8-11.9-29-27.7-29.5c-15.8-0.5-29,11.9-29.5,27.6c-0.5,15.8,11.9,29,27.6,29.5
					C342.2,285.2,355.4,272.8,355.9,257.1z"/>
			</g>
			<path class="st2" d="M109.4,297.5c14.3-2.9,28.5-6.9,42.5-11.9l0,0c0.7-0.2,1.3-0.4,2-0.6l18.7,107.1
				c1.8,10.5-4.3,20.8-14.4,24.2l0,0c-12.3,4.1-25.4-3.5-28-16.2L109.4,297.5z"/>
			<path class="st3" d="M155.7,176.8l-2.6,142.5c-18.9-2.7-38-4.4-57.2-5l0,0c-0.9,0-1.8-0.1-2.7-0.2l7.3-136.7l5.3,0.2
				C122.4,178.2,139,177.9,155.7,176.8z"/>
			<path class="st2" d="M48.6,244.1L48.6,244.1c0.9-27.5,23.9-49,51.3-48.1l0.1,0l-5.3,99.3C68.3,293.5,47.8,270.9,48.6,244.1z"/>
			<path class="st4" d="M327.3,154.6l-6.6,202.9l-75.5-30.8c-29.3-12-60-20.3-91.3-24.7l1.9-105.3c30.8-2,61.3-7.6,90.8-16.8
				L327.3,154.6z"/>
			<g>
				<polygon class="st3" points="340,139.6 322.2,139 314.7,369.3 332.5,369.9 				"/>
			</g>
			<g>
				<g>
					<g>
						<path class="st5" d="M364.8,300.2c-2.2,0.6-4.2,2.2-5.2,4.5c-1.8,4,0,8.8,4,10.7l58.4,26.4c4.1,1.8,8.9,0,10.7-4
							c1.8-4.1,0-8.9-4-10.7l-58.4-26.4C368.5,299.8,366.6,299.7,364.8,300.2z"/>
					</g>
				</g>
				<g>
					<g>
						<path class="st5" d="M374.6,259.7c-3.3,0.9-5.7,3.9-5.9,7.5c-0.2,4.4,3.3,8.2,7.8,8.4l64,2.4c4.4,0.2,8.2-3.3,8.4-7.8
							c0.2-4.4-3.3-8.2-7.8-8.4l-64-2.4C376.2,259.3,375.4,259.5,374.6,259.7z"/>
					</g>
				</g>
				<g>
					<g>
						<path class="st5" d="M427.8,184.9c-0.2,0.1-0.4,0.2-0.6,0.2l-60,22.5c-4.2,1.6-6.3,6.2-4.7,10.4c1.6,4.2,6,6.2,10.4,4.7
							l60-22.5c4.2-1.6,6.3-6.2,4.7-10.4C436.1,185.8,431.8,183.7,427.8,184.9z"/>
					</g>
				</g>
			</g>
		</g>
		<g>
			<line class="st6" x1="138.8" y1="214.3" x2="119" y2="212.9"/>
			<line class="st6" x1="138.8" y1="229.4" x2="119" y2="228"/>
			<line class="st6" x1="138.8" y1="244.5" x2="118.9" y2="243.1"/>
			<line class="st6" x1="138.7" y1="259.6" x2="118.9" y2="258.2"/>
			<line class="st6" x1="138.7" y1="274.7" x2="118.8" y2="273.3"/>
			<line class="st6" x1="138.6" y1="289.8" x2="118.8" y2="288.4"/>
		</g>
	</g>
</g>
<g id="Layer_2_1_">
	<path class="st7" d="M938.3,130.5H515.5c-8.8,0-15.9,7.1-15.9,15.9v350.3c0,8.8,7.1,15.9,15.9,15.9h177.8l33.6,50.6l33.6-50.6
		h177.8c8.8,0,15.9-7.1,15.9-15.9V146.4C954.2,137.6,947,130.5,938.3,130.5z"/>
	<path class="st8" d="M917.2,92.9H494.4c-8.8,0-15.9,7.1-15.9,15.9v350.3c0,8.8,7.1,15.9,15.9,15.9h177.8l33.6,50.6l33.6-50.6h177.8
		c8.8,0,15.9-7.1,15.9-15.9V108.8C933.1,100,926,92.9,917.2,92.9z"/>
	<rect x="513" y="130.5" class="st9" width="385.6" height="295.5"/>
	<g>
		<path class="st1" d="M579.4,152.5c1.9,0,4.3,1.1,7.2,3.3c3.1,3.9,4.7,6.6,4.7,8.1v0.3L591,169l0.6,6.8l-0.6,4.1
			c0.7,8.1,1.4,18.4,2,31l-0.6,11.1v2.6l-1.1,7.5l0.3,3l-1.1,8.1l0.2,4.1c0,3.7-0.7,12-2.1,24.8c0,2.3-0.5,5.7-1.4,10.2v7.1
			l1.1,14.4l-1.1,16.8c0.5,13.5,1.2,23.1,2,28.7c1.2,6.9,2,12.9,2.4,17.9c1.6,2.2,3.6,3.3,6,3.3h2.1c5.2-0.4,9-0.9,11.4-1.4v0.3
			l0.3-0.3h4.5l0.3,0.3l0.3-0.3h0.3c5.6,1.3,8.4,2.7,8.4,4.1c2,2.9,3,5.1,3,6.5v0.9c0,3.1-4.1,5.1-12.3,6l-0.2-0.3l-7.7,1.1l-6-0.3
			h-1.7c-3.4,0-7.3,1.6-11.6,4.8l-1.7,0.3c-2.8,0-6.7-2.3-11.7-6.9c-1.6-2.1-2.4-4.2-2.4-6.3l1.4-6.5v-2
			c-2.5-13.2-4.1-27.4-4.8-42.4l-0.3-6.2l0.8-16.1v-7.1l-1.1-12.5c0.4-8.3,1.1-15.4,2-21.2l1.4-4.2l-0.3-2l1.4-24.5
			c0.7-8.6,1.2-17.3,1.4-26l-0.3-9.8v-2.4l-1.1-7.4v-27.4c0.1-1.6,0.4-2.5,0.8-2.6l-0.2-0.1v-3.6
			C574.7,153.4,576.5,152.5,579.4,152.5z"/>
		<path class="st1" d="M647.5,155.6c2.7,0,4.9,2.2,6.6,6.5c1,0.6,1.5,3.4,1.5,8.4h-0.3c0.5,1.8,0.8,3.5,0.8,5v3l-0.8,5.4v4.1
			c-0.7,3.1-1.2,6.5-1.4,10.2c0.7,2.7,1.1,6.2,1.1,10.4l-0.5,1.1h0.2l-0.5,2.4l0.3,1.7v1.1l-0.9,12.3c0,3.1-0.2,6.1-0.5,8.9
			l-0.2,0.3c0.3,2.1,1,4.6,2.1,7.4h-0.3c0.6,1.5,1.1,4.4,1.4,8.7l-0.3,3.2l0.6,5l-0.8,23l0.2,13.1l-0.2,2c0.3,0.9,0.5,2.8,0.5,5.7
			v3.5c0,1.6,0.3,2.9,0.9,3.8l-0.3,0.3l0.5,12.8v2.3l0.2,0.2v0.3h-0.2c0.9,1.8,1.7,6.6,2.4,14.4c-0.2,6.5-0.5,10.8-0.9,12.8
			l1.4,12.2l-0.1,1.7v3l0.1,4.1c0,3-1.6,5.8-4.8,8.4h-1.1c-4.6-0.7-6.9-1.6-6.9-2.7l-0.5-0.6c-3.1-2.8-4.8-5.1-5-6.8v-6.8l-0.5-7.1
			l0.3-3.8l-0.3-13.1v-3.6c0-3.4-1-12.3-2.9-26.8l-0.9-9.6v-1.1l0.3-0.3l-0.3-0.2v-7.1l0.3-8.4l-0.5-6.9l0.5-3.5l-0.3-0.3v-6
			l1.4-7.2c-0.7-10.4-1.7-17.8-2.9-22.1l-0.3-1.4h0.3c-0.9-2.6-1.2-7.1-0.8-13.5h0.3l-0.3-0.3v-4.1l0.3-0.3l-0.3-0.2
			c0.6-7.7,0.9-14.2,0.8-19.4l-0.3-0.2c1.1-8,1.7-12.7,1.7-14v-1.1l-0.2-2.4l0.5-7.4l1.1-13.2c0-1.6,1.6-3.8,4.8-6.6l0.3-0.2h0.3
			l1.1,0.2L647.5,155.6z M641.5,348.9v-0.3l0.6-0.5l1.1,0.5l-1.1,0.8L641.5,348.9z M652.8,385.7v-0.8c0.7-1,1.8-1.5,3.2-1.5
			c1.5,0.5,2.3,1.2,2.3,2c0,1.3-1.1,2-3.2,2.1C653.7,387.5,653,386.9,652.8,385.7z M656.4,397.9v-0.2c0-0.8,0.5-1.4,1.5-1.8h0.3
			c1.5,0,2.3,0.6,2.3,1.8v0.5l-1.4,1.1h-0.6C657.5,399.2,656.8,398.8,656.4,397.9z M658.6,334.7l0.9-0.5h0.6l0.3,0.2l-0.3,1.1h-1.2
			L658.6,334.7z M662.5,384v-0.3c0.1-0.3,0.6-0.6,1.5-0.9c1.5,0,2.3,0.6,2.3,1.7l-1.4,1.1h-1.5C662.9,385.5,662.6,385,662.5,384z
			 M663.4,370.7l1.7-0.8h0.3c1.6,0,2.6,0.8,2.9,2.3c0,0.9-0.6,1.6-1.7,2h-1.5C664.3,374.1,663.7,373,663.4,370.7z M666.3,349.9v-0.3
			l0.9-0.8h0.3l0.9,0.8v0.5l-0.6,0.6h-0.6L666.3,349.9z M667,395.8V395c0-1.1,0.8-1.7,2.3-1.7c1.5,0,2.4,0.7,2.6,2
			c-0.3,0.7-0.9,1.2-1.7,1.5h-1.8L667,395.8z M671.6,332.3v-0.8l1.1-0.8h0.3c1.2,0,1.8,0.5,1.8,1.5l-0.9,0.8h-1.2L671.6,332.3z
			 M685.4,336.2v-0.2l0.3-0.3l0.8,0.5v0.3l-0.3,0.3L685.4,336.2z"/>
		<path class="st1" d="M682.1,153.2c1.1,0,2.8,1.7,5,5c0,0.5,0.7,1.3,2,2.4l1.1,10.1l-1.1,10.5l0.2,2.6l-1.4,17.6
			c1.1,3,1.7,8.8,1.7,17.4v0.5c0.3,0.8,0.9,1.5,1.7,2h0.3c1.6,0,3.2-2.3,4.7-6.8c4.5-9.3,6.8-15.2,6.8-17.7
			c2.9-5.3,4.7-9.6,5.4-12.9l3-10.1l5.1-14.9c1.9-2,3.8-3,5.7-3h2c3,0,6,3.4,8.9,10.2v2c-1.7,5.8-3.7,10.8-6,14.9
			c-2.7,8.7-5.1,15.7-7.2,20.9c-1.3,5.7-2.7,9.7-4.1,12l-6.3,14.6c-1.3,1.3-2.8,4.8-4.4,10.4l-2,8.9h0.2l-0.2,0.3v2.7l0.2,0.3v0.3
			H703c3.4,7.5,5.3,13.6,5.6,18.2l5.4,12.8c3.7,9.1,7.5,19.7,11.4,31.7c2.3,14.7,4.8,25.7,7.4,32.9l2.3,13.8
			c3.2,5.6,3.8,10.8,1.8,15.5c-1.3,3.8-3.1,5.7-5.4,5.7h-0.3c-3.8-0.9-6.4-2.5-7.8-4.7c-2.4-5.4-4.1-10.2-5.1-14.4l-1.7-10.2h0.3
			c-1.2-6.6-3.5-13.9-6.8-21.8c-1.1-3.3-1.8-8.2-2-14.6c-3.1-10.7-6.3-20.8-9.6-30.2c-2.9-6.9-5-10.4-6.3-10.4h-0.3
			c-1.7,0-2.8,3.6-3.2,10.7l0.3,6.5l-0.3,2.7l1.1,19.4l-0.5,51c0.8,6.1,1.2,10.6,1.2,13.5v2c-0.7,2.5-2.7,3.8-5.9,3.8l-0.3,0.3H684
			c-3.1-0.6-5.7-2-7.8-4.1c-4-4.1-6-8.2-6-12.2l0.6-12l-0.3-7.5v-5.4c0.5-3.2,0.9-7.8,1.1-13.7l-0.6-5.9l0.6-5.6l-0.3-10.2v-5.4
			l-0.5-11V292l1.1-15.2l-0.3-3l0.3-5.7v-1.4l-0.6-7.4v-5.1l-0.3-8.1l0.9-11.9l-0.6-4.7v-8.4l0.3-5l-0.6-6.5l0.3-3.8l-0.5-6.3
			l0.5-6.5v-1.7l-0.3-0.8l0.3-1.4v-12.8c1-12.7,1.8-19.1,2.3-19.1C675.3,154.7,678.2,153.2,682.1,153.2z M694.9,396.4v0.6v1.2V397
			l-0.8-0.6H694.9z M695.6,337.9l0.6,0.5l-0.2,0.6l-0.2,0.9l-0.6-0.8L695.6,337.9z M710.2,386.3l2.3,0.6l1.2,1.4l-0.2,0.6l-1.5,2.7
			l-3.6-0.8l-1.2-1.5l0.5-1.8L710.2,386.3z M734.9,403.7l2.1,0.6c0.4,0.7,0.4,2.1-0.2,4.1c-0.7,1-2.3,1.2-4.8,0.6
			c-1.1-1.7-1.5-3.2-1.2-4.5L734.9,403.7z M740.1,363.6l0.8,0.3l1.2,1.5l-1.8,0.8l-0.8-0.2L740.1,363.6z M749.4,395.8h3.8v2.4h-3.8
			V395.8z"/>
		<path class="st1" d="M755.8,155.3h7.4c6,0,12,0.5,17.9,1.4v-0.3c5,0.6,8.6,1.4,10.8,2.3c3.8,1.1,5.7,2.6,5.7,4.4
			c1.1,1.7,2.1,3.1,3,4.1v3c-1.3,2.3-3.9,3.5-7.8,3.5c-9-1.1-15.8-1.7-20.5-1.7h-3.5c-4.7,0-7.1,1.5-7.1,4.4c0,16.2,0.7,26.9,2.1,32
			l0.6,10.4l-0.8,10.2l0.2,2c-1.2,7.8-1.8,12.9-1.8,15.2c0,5.3,1.8,8,5.4,8c0.1,0.2,2.5,0.6,7.1,1.1c4.7-0.1,9.8,1,15.2,3.3
			c4.3,3,6.5,6.2,6.5,9.5c0,2.4-1.7,3.9-5.1,4.4c-6.7-1.4-14.9-2.4-24.7-3c-2,0.4-3,2.5-3,6.2l-0.9,9l0.3,1.4l-0.3,3.3l0.9,7.2v4.1
			l-0.9,9.8h0.3l-2.1,9.3h0.3l-0.6,3.8l0.6,2.7l-0.3,0.3c0.5,1.9,0.8,3.5,0.8,4.8v6l0.3,8l-0.6,5.4c0,11.9,0.9,17.9,2.7,17.9
			c0,1,8.2,1.7,24.5,2.1c4.4,1,7.3,2.8,8.7,5.3c1.5,2.5,2.3,4.1,2.3,4.8c0,4.2-3,6.3-9,6.3h-2c-2.8,0-5.5-0.3-8.1-0.9l-0.3,0.3h-0.3
			c-10.6-0.5-18.3-1.6-23-3.3c-3.5-2.2-6.5-4.6-9-7.1c-2.9-3.9-4.4-8.1-4.4-12.6L743,349l1.2-12.8c-0.8-3.1-1.5-8.6-2-16.5
			c1.3-3.8,2-6.6,2-8.3l1.4-9.2v-3.8l-0.6-7.4v-9.8l0.6-6.5v-11l-1.7-9.5l0.5-4.7l-0.1-5.4c0.5-6.6,1.3-12.7,2.4-18.3v-0.3
			l-1.1-17.4h0.2c-0.8-4.7-1.5-12.7-2.1-23.9h0.3l-0.3-0.3V177l0.3-0.2l-0.3-0.3v-0.3l0.6-3.3l-0.3-5.7c0.3-6.5,1.2-9.8,2.7-9.8
			C748.5,156,751.5,155.3,755.8,155.3z"/>
		<path class="st1" d="M818.6,137.1h0.3c2.2,0,4.4,1.9,6.5,5.6c1,1.1,2,2.6,3,4.4l-0.3,5.3c0,4.8,0.2,8.6,0.6,11.3l-0.3,2.1
			c0.2,8.4,0.7,17.9,1.4,28.4v12c0,1.2,0.3,2.6,0.9,4.1h-0.3l0.3,0.3v2.3l0.5,7.8c0,11.1-0.7,21.4-2.1,30.7
			c-0.2,8.6-0.6,14.7-1.2,18.3l1.7,13.8l0.6,2.6l-0.3,11.1v7.8c-0.5,5.5-2.8,8.3-6.9,8.3h-1.4c-2,0-5.3-3-9.8-8.9v-4.5l-0.6-4.7
			l0.9-7.5c-0.3-2.3-0.7-4-1.2-5l0.3-0.3v-0.3l-1.4-8.1l0.6-4.4l-0.3-4.5v-4.2c0-3.3,0.2-6.1,0.8-8.3l-0.3-0.9
			c0.2-3.5,0.7-6.5,1.5-8.9l-0.3-2v-2.3l0.6-4.4c0-5.2,0.2-9.3,0.5-12.3l-1.1-13.5l0.3-5.4c-0.4-1.4-0.7-6-0.9-13.8h-0.3l0.3-0.3
			v-0.3l-1.7-31.4l0.3-8.6v-4.2c1.5-4.5,2.9-6.8,4.2-6.8C816.1,137.6,817.6,137.4,818.6,137.1z M820.6,334.4
			c2.4,0.3,5.6,3.6,9.5,9.8l0.3,2l-0.6,7.5v1.7l0.9,17.4c-0.5,6.7-2.6,10.1-6.2,10.1l-2,0.3h-0.6c-2.1,0-4.9-2.3-8.3-6.9
			c-1.1-1.3-1.7-2.6-1.7-3.9l0.3-5.6l-0.6-4.2l0.3-4.8l-0.9-7.4l0.6-6.2l-0.3-2.6C811.4,337.5,814.5,335.1,820.6,334.4z
			 M830.6,345.4v0.3l-4.1,1.4C828.3,345.9,829.6,345.4,830.6,345.4z M831.2,210.8c1.7,0.1,2.6,0.6,2.6,1.4c0,0.6-0.6,1.1-1.8,1.4
			c-1.1,0-2-0.3-2.6-0.9V212C829.5,211.2,830.1,210.8,831.2,210.8z M835,349.8h1.5c0.7,0.2,1.2,0.5,1.4,0.9
			c-0.1,0.9-0.8,1.4-2.1,1.4c-1.2,0-1.8-0.4-1.8-1.2v-0.5L835,349.8z M840,359.8v1.2l-1.5,1.4H838c-1.9,0-2.9-0.9-2.9-2.6l1.5-1.4
			h1.8L840,359.8z M837.7,326.9h0.6l1.1,0.8v0.3c0,0.7-0.7,1.1-2,1.1h-0.2c-0.9-0.2-1.4-0.5-1.4-1.1v-0.2
			C836.3,327.2,836.9,326.9,837.7,326.9z M837.6,346.7v0.5l-0.1,0.8h-0.3v-0.8L837.6,346.7z M840.9,357.9v0.3l-0.5,0.3h-0.2
			l-0.5-0.3V358l0.5-0.3h0.3L840.9,357.9z M845.7,213.1h1.4l0.9,0.8c0,0.7-0.6,1.1-1.8,1.1c-0.7-0.2-1.1-0.4-1.2-0.6v-0.1
			C845,213.4,845.3,213.1,845.7,213.1z M862.2,364.6h1.1l0.1,0.6l-0.1,0.3h-0.6l-0.8-0.5L862.2,364.6z M884.5,363.7l0.3,0.2v0.2
			l-0.5,0.5l-0.3-0.2V364L884.5,363.7z"/>
	</g>
</g>
<g id="Layer_3">
	<g>
		<path class="st7" d="M1268.4,365.2c-9.6-9.4-21-16.2-33.5-19.9l-45.5-76.1c0,0-1.3-2.1-2.7-4.3c16.2-7.9,27.3-24.5,27.3-43.6
			c0-7.1-5.8-12.9-12.9-12.9c-7.1,0-12.9,5.8-12.9,12.9c0,12.5-10.2,22.7-22.7,22.7s-22.7-10.2-22.7-22.7
			c0-12.4,10.1-22.6,22.3-22.7l0.3,0c7.9,0,14.4-6.5,14.4-14.4v-32.7c7.4-4.8,12.4-13.1,12.4-22.5c0-13.8-10.4-25.1-23.8-26.6
			l0-102.4h-5.8l0,102.4c-13.4,1.5-23.8,12.8-23.8,26.6c0,9.4,4.9,17.7,12.3,22.5v23.5c-20.2,6.3-34,25-34,46.3
			c0,25.6,19.9,46.5,45,48.3l-27.6,73.8c-39,6-68.8,40-68.5,80.6c0.2,21.6,8.7,41.9,24.1,57c15.3,15,35.4,23.3,56.8,23.3
			c0.2,0,0.4,0,0.6,0l64.7-0.5c44.6-0.3,80.7-36.9,80.3-81.5C1292.3,400.6,1283.8,380.3,1268.4,365.2z M1211.6,341.9
			c-0.2,0-0.4,0-0.6,0l-64.7,0.5c-1.8,0-3.5,0.1-5.3,0.2l27.3-73c4.5-0.3,8.8-1.1,12.9-2.5c1.5,2.4,3.1,5,3.2,5.1l42.5,71.2
			C1221.9,342.4,1216.8,341.9,1211.6,341.9z"/>
		<line class="st10" x1="1165.5" y1="250.7" x2="1225.5" y2="351"/>
		<circle class="st7" cx="1184" cy="480.2" r="142.2"/>
		<circle class="st8" cx="1165.5" cy="463.5" r="142.2"/>
		<g>
			<path class="st11" d="M1094.8,383c1.8,0,3.3,1.5,4.5,4.4c0.7,0.4,1,2.3,1,5.7h-0.2c0.3,1.2,0.5,2.3,0.5,3.4v2l-0.5,3.7v2.7
				c-0.5,2.1-0.8,4.4-0.9,6.9c0.5,1.8,0.7,4.2,0.7,7l-0.3,0.7h0.1l-0.3,1.6l0.2,1.1v0.7l-0.6,8.4c0,2.1-0.1,4.1-0.3,6l-0.1,0.2
				c0.2,1.4,0.7,3.1,1.4,5h-0.2c0.4,1,0.7,3,0.9,5.9l-0.2,2.1l0.4,3.4l-0.5,15.6l0.1,8.9l-0.1,1.3c0.2,0.6,0.3,1.9,0.3,3.9v2.3
				c0,1.1,0.2,1.9,0.6,2.5l-0.2,0.2l0.3,8.7v1.5l0.1,0.1v0.2h-0.1c0.6,1.2,1.2,4.5,1.6,9.8c-0.1,4.4-0.3,7.3-0.6,8.7l0.9,8.2
				l-0.1,1.1v2l0.1,2.8c0,2-1.1,3.9-3.3,5.7h-0.7c-3.1-0.5-4.7-1.1-4.7-1.8l-0.3-0.4c-2.1-1.9-3.2-3.4-3.4-4.6v-4.6l-0.3-4.8
				l0.2-2.5l-0.2-8.9v-2.4c0-2.3-0.6-8.4-1.9-18.1l-0.6-6.5v-0.7l0.2-0.2l-0.2-0.1V477l0.2-5.7l-0.3-4.7l0.3-2.3l-0.2-0.2V460
				l0.9-4.9c-0.5-7.1-1.1-12-1.9-15l-0.2-0.9h0.2c-0.6-1.8-0.8-4.8-0.5-9.2h0.2l-0.2-0.2v-2.8l0.2-0.2l-0.2-0.1
				c0.4-5.2,0.6-9.6,0.5-13.1l-0.2-0.1c0.7-5.4,1.1-8.6,1.1-9.5v-0.7l-0.1-1.6l0.3-5l0.7-9c0-1.1,1.1-2.6,3.3-4.5l0.2-0.1h0.2
				l0.7,0.1L1094.8,383z M1090.8,513.9v-0.2l0.4-0.3l0.7,0.3l-0.7,0.5L1090.8,513.9z M1098.4,538.8v-0.5c0.5-0.7,1.2-1,2.1-1
				c1,0.3,1.5,0.8,1.5,1.3c0,0.9-0.7,1.4-2.1,1.4C1099,540,1098.5,539.6,1098.4,538.8z M1100.8,547.1V547c0-0.5,0.3-1,1-1.2h0.2
				c1,0,1.5,0.4,1.5,1.2v0.3l-0.9,0.7h-0.4C1101.6,548,1101.1,547.7,1100.8,547.1z M1102.4,504.3l0.6-0.3h0.4l0.2,0.1l-0.2,0.7h-0.8
				L1102.4,504.3z M1105,537.7v-0.2c0.1-0.2,0.4-0.4,1-0.6c1,0,1.5,0.4,1.5,1.1l-0.9,0.7h-1C1105.3,538.7,1105.1,538.4,1105,537.7z
				 M1105.6,528.6l1.1-0.5h0.2c1.1,0,1.7,0.5,1.9,1.5c0,0.6-0.4,1.1-1.1,1.3h-1C1106.2,531,1105.8,530.2,1105.6,528.6z
				 M1107.6,514.6v-0.2l0.6-0.5h0.2l0.6,0.5v0.3l-0.4,0.4h-0.4L1107.6,514.6z M1108.1,545.6v-0.5c0-0.7,0.5-1.1,1.5-1.1
				c1,0,1.6,0.4,1.7,1.3c-0.2,0.5-0.6,0.8-1.1,1h-1.2L1108.1,545.6z M1111.1,502.7v-0.5l0.7-0.5h0.2c0.8,0,1.2,0.3,1.2,1l-0.6,0.5
				h-0.8L1111.1,502.7z M1120.5,505.3v-0.1l0.2-0.2l0.5,0.3v0.2l-0.2,0.2L1120.5,505.3z"/>
			<path class="st11" d="M1122.4,379l1.6,0.1c4,0.1,9.3,1.8,16,5.1c3.1,1.6,6.2,4.1,9.4,7.5c1.5,1.9,2.5,3.9,3.2,5.9
				c0.5,1,0.9,4,1.2,9.1v0.3l-0.8,5.5l-0.1,2c-0.1,2.6-0.4,5.3-0.9,8l0.1,7.7l-0.3,1.8c0.3,3.9,0.5,8.9,0.5,15.2l-0.1,1l-0.4,6.5
				c0.2,0.6,0.3,3.8,0.3,9.6v0.5l-0.4,3.5l1,14.6l0.2,1.7l-1,6c0.3,2.9,0.5,8.1,0.4,15.7l-0.4,6l-0.1,0.8l-0.1,8
				c-0.1,2.3-1.3,6.5-3.4,12.4c-1.4,1.2-2.8,2.9-4.4,4.9c-4.1,2.5-7,3.7-8.7,3.7c-0.3,0.5-4.1,0.7-11.4,0.6c0,0.1-0.5,0.2-1.5,0.3
				V543c-1.2,0.3-2.3,0.5-3.5,0.4c-1.8-0.1-3.6-1.6-5.2-4.5c-1.6-2.2-2.4-4-2.3-5.3c0.4-3.7,1.1-6.8,1.9-9.3c-0.6-1.1-0.9-2-0.8-2.9
				l0.2-5.9c0.1-3.1,0.1-4.6-0.1-4.6l0.2-0.9l0.2-5.7c-0.1-7.3-0.2-11.9-0.5-13.9l0.3-2c0.2-4.6,0-8.8-0.6-12.5l0.1-1.1V469l0.5-2.5
				c-0.3-1.4-0.5-6.6-0.6-15.5l0.8-10.6l0.5-15.5l-0.4-7.5l0.5-3.9c-0.8-1.8-1.3-6.3-1.4-13.5c-0.2,0-0.3-2.5-0.3-7.5
				c-2.1-3.3-3.4-5.8-3.9-7.3c1.2-3.3,3-4.8,5.4-4.7L1122.4,379z M1124.1,395.3c0.1,4.9,0.3,8.6,0.7,11.1l-0.4,3.1
				c0.5,1.7,0.8,6.1,0.9,13.1c0.3,2.9,0.4,6.2,0.3,10.1l-0.3,2.7l0.1,2.4l-0.4,5l0.1,1.4l-0.9,5l0.5,6l-0.3,1.8l0.1,11.3l-0.4,4.4
				l0.4,5l-0.5,2.7l0.9,4.6l-0.3,1.3v1.2l0.6,15.9l-0.7,7.1v0.4l0.4,15.3l-0.1,2c0.2,1.8,1,2.8,2.3,2.9l1.1,0.1
				c3.1,0.1,6-1.1,8.8-3.4c1.2-0.8,2.2-4.6,2.9-11.5l0.3-1l-0.4-3.9l0.5-12.1l-0.3-5.9l0.3-2.2l-0.3-2.4l0.4-3.8v-0.9
				c0.1-2.9-0.1-6.4-0.7-10.6l0.1-2.1l-0.1-5l0.3-6.6l-0.2-4.5l0.5-3.1l-0.4-17.1l-0.1-1.9l0.1-2.7l0.1-6l0.3-2.4l-0.1-2.1l0.4-5
				v-0.5l0.9-3.7l-0.3-2.6l0.2-3.7c0.1-3-0.3-5.9-1.3-8.7c-1.8-3.3-5.4-5-10.8-5.3c-3.2-0.1-4.8,0.8-4.9,2.7L1124.1,395.3z"/>
			<path class="st11" d="M1169.8,382.8h5c4.1,0,8.1,0.3,12.1,0.9v-0.2c3.4,0.4,5.8,0.9,7.3,1.5c2.6,0.7,3.9,1.7,3.9,3
				c0.7,1.2,1.4,2.1,2,2.7v2c-0.9,1.6-2.6,2.3-5.3,2.3c-6.1-0.7-10.7-1.1-13.8-1.1h-2.3c-3.2,0-4.8,1-4.8,3c0,11,0.5,18.2,1.4,21.7
				l0.4,7l-0.5,6.9l0.1,1.3c-0.8,5.3-1.2,8.7-1.2,10.3c0,3.6,1.2,5.4,3.7,5.4c0.1,0.1,1.7,0.4,4.8,0.7c3.2-0.1,6.6,0.7,10.3,2.2
				c2.9,2,4.4,4.2,4.4,6.4c0,1.6-1.2,2.6-3.5,3c-4.5-0.9-10.1-1.6-16.7-2c-1.4,0.3-2,1.7-2,4.2l-0.6,6.1l0.2,0.9l-0.2,2.2l0.6,4.9
				v2.8l-0.6,6.6h0.2l-1.4,6.3h0.2l-0.4,2.5l0.4,1.8l-0.2,0.2c0.3,1.3,0.5,2.4,0.5,3.3v4.1l0.2,5.4l-0.4,3.7
				c0,8.1,0.6,12.1,1.8,12.1c0,0.7,5.5,1.2,16.6,1.4c3,0.7,5,1.9,5.9,3.6c1,1.7,1.5,2.8,1.5,3.3c0,2.9-2,4.3-6.1,4.3h-1.3
				c-1.9,0-3.7-0.2-5.5-0.6l-0.2,0.2h-0.2c-7.2-0.3-12.4-1.1-15.6-2.2c-2.4-1.5-4.4-3.1-6.1-4.8c-2-2.6-3-5.5-3-8.6l-0.2-9.6
				l0.8-8.7c-0.5-2.1-1-5.8-1.3-11.2c0.9-2.6,1.3-4.4,1.3-5.6l0.9-6.2v-2.5l-0.4-5v-6.6l0.4-4.4v-7.4l-1.1-6.4l0.3-3.2l-0.1-3.7
				c0.3-4.5,0.9-8.6,1.6-12.4v-0.2l-0.7-11.8h0.1c-0.5-3.2-1-8.6-1.4-16.2h0.2l-0.2-0.2v-4.8l0.2-0.1l-0.2-0.2V397l0.4-2.2l-0.2-3.9
				c0.2-4.4,0.8-6.6,1.8-6.6C1164.9,383.3,1166.9,382.8,1169.8,382.8z"/>
			<path class="st11" d="M1231.3,379.2h0.2c1.8,0,4.1,2.5,7.1,7.5l0.6,4.4l-0.2,1.1v1.1c0.6,3.9,1.1,9,1.4,15.1
				c1,8.3,1.5,13.8,1.5,16.5l-0.2,4.7l0.4,3.5l-0.2,3.7v4.3l0.7,9.5l0.7,7.2l-0.3,2.7l0.2,2.5v3.6l0.9,3.8l-0.2,2
				c0.4,6.7,0.8,10.6,1.1,11.8h-0.2c0.6,3.6,1,6.6,1.1,9c0.4,0.3,0.7,3.6,0.9,10l-0.2,2c0.7,2.4,1.2,4.7,1.4,6.9
				c0.7,1.6,1.1,3,1.1,4.1v2.8c0,0.6,0.3,1.7,0.9,3.2h-0.2l0.2,0.2v0.7l1.1,8.2v1.6c0,1.9-1.2,3.5-3.5,4.7h-0.9
				c-1.4,0-3.2-1.1-5.4-3.2c-2.2-2.1-3.3-5.2-3.3-9.4l-0.9-7.9c-0.6-2.2-1.1-4.7-1.3-7.3l-0.2-0.2h0.2c-1.2-5.9-1.8-11.1-1.8-15.5
				c-1-1.2-1.7-1.8-2.3-1.9l-0.2,0.1l-0.9-0.1h-2.8l-5.9-0.4c-1.5,0.5-2.2,1.6-2.2,3.3l-0.9,3.2l0.6,3c-0.2,5.5-0.5,8.7-0.8,9.6
				l0.2,0.2v2.7l-1.2,7.7c0,1.8-0.3,4.8-0.9,8.8v1.1l1,5.4v0.3c0,1.1-0.8,2.2-2.3,3.5c0,0.3-0.4,0.6-1.1,0.9l-3.7-1.3
				c-3.9-2.8-5.9-5.9-5.9-9.3v-3.4l-0.2-0.2c1-5.2,1.5-8.8,1.5-10.8h-0.2c0.3-1.5,0.8-5.1,1.3-10.7l-0.2-5.7l0.3-2h-0.1l0.1-0.1
				v-2.4c0.7-4.8,1.1-8.3,1.1-10.7v-0.5l0.2-0.2l-0.2-0.2l0.4-2.1l-0.2-3v-3.6l0.4-4.4l-0.2-2.3l0.3-7.7l-0.1-1.7l0.7-4.2l-0.2-3.4
				c0.1-0.8,0.2-1.2,0.4-1.2l-0.2-0.2l1.4-6.1l-0.1-0.1l0.9-6.1l-0.6-2.7c0-2.7,0.6-7.9,1.8-15.5c0-5.2,0.3-10.3,0.9-15.1l-0.2-2.7
				l0.8-5.3l-0.2-2.6c0-3.7,0.7-7,2-10.1l-0.2-0.2c0.5-0.8,1.2-1.2,2.2-1.2l2.8-0.9l3.3,1l2.5-1.4
				C1228.9,379.8,1230.3,379.2,1231.3,379.2z M1226.3,408.7l0.2,3.1c-0.6,1.2-0.9,3.3-0.9,6.1c-0.1,0-0.2,0.4-0.3,1.3h0.1l-0.5,2.9
				v1l0.2,1.4c-0.6,3.5-1.1,7.1-1.5,11v7.5c0,1.3-0.3,3-0.9,5h0.2c-0.6,2.5-1.1,5.7-1.3,9.6v6.2l-0.1,0.8l0.1,0.1l-0.3,2.4l-0.2,8.5
				l-0.2,0.2v0.2c0,3.3,1.2,4.9,3.6,4.9l5.1-0.1h0.9c1.2-0.7,1.8-1.7,1.8-2.9h-0.2l0.2-0.1v-0.2l-0.2-0.2l0.2-0.9v-0.9l-0.2-0.9h0.2
				l-0.2-0.2v-0.2l0.2-0.1V474l-0.2-0.2h0.2l-0.2-0.5l-0.9-9.8l0.2-3.2c-0.8-8.3-1.2-16-1.2-23l0.3-3.1l-0.9-3.6l0.2-0.1v-1.7
				l-0.2-0.1l0.6-2.9c-0.2-4.6-0.4-6.9-0.6-6.9l0.2-0.2l-0.7-5.5c-0.7-1.1-1.1-1.9-1.1-2.5l0.3-1.9l-0.5-1h-0.7
				C1226.6,407.8,1226.4,408.1,1226.3,408.7z M1250.1,434v0.6c0,1-0.3,1.4-0.9,1.4s-1-0.5-1-1.6c0.1-0.5,0.3-1,0.6-1.2h0.8
				L1250.1,434z M1251.9,539.3l-0.5-0.4c-0.4-0.3-0.7-1.1-0.9-2.1l0.3-0.3c1.2-0.1,2,0,2.4,0.3l0.1,0.1c0.7,0.6,0.8,1.2,0.3,1.7
				l0.3-0.1l0.4,0.4v0.4l-0.2,0.2l-0.6-0.3l-0.1-0.4C1252.9,539.4,1252.4,539.5,1251.9,539.3z M1257,443.1v0.6l-0.4,0.6h-0.1
				c-0.5,0-0.8-0.4-0.8-1.2l0.4-0.6h0.5L1257,443.1z M1257.2,437.4l-0.3,0.6h-0.5l-0.4-0.6v-0.6l0.4-0.6h0.5
				C1257.1,436.2,1257.2,436.6,1257.2,437.4z M1258.6,428.6l0.1,0.2l-0.1,1h-0.5l-0.2-0.4V429l0.2-0.4H1258.6z M1259.1,544.9h0.8
				c0.6,0.3,0.9,0.7,0.9,1.2c-0.1,1-0.6,1.4-1.5,1.4h-0.2l-0.9-0.5C1258.4,545.6,1258.7,544.9,1259.1,544.9z"/>
		</g>
		<line class="st10" x1="1149.9" y1="233.5" x2="1039.4" y2="529.1"/>
		<g>
			<line class="st12" x1="1149.9" y1="0" x2="1149.9" y2="145"/>
			<g>
				<path class="st13" d="M1185.4,197.9c-5.5,0-10,4.5-10,10c0,14.1-11.5,25.6-25.6,25.6c-14.1,0-25.6-11.5-25.6-25.6
					c0-14.1,11.3-25.5,25.4-25.6c0.1,0,0.1,0,0.2,0c6.3,0,11.5-5.1,11.5-11.5v-40.1h-23v33.1c-19.6,5.1-34,22.9-34,44.1
					c0,25.2,20.4,45.5,45.5,45.5c25.2,0,45.5-20.4,45.5-45.5C1195.4,202.4,1190.9,197.9,1185.4,197.9z"/>
			</g>
			<circle class="st8" cx="1149.9" cy="115.6" r="23.8"/>
		</g>
	</g>
</g>
<g id="Layer_4">
	<g>
		<g class="st7">
			<path d="M379.2,841.7c0,49.7-40.3,90-90,90l0,0c-49.7,0-90-40.3-90-90V740.6c0-49.7,40.3-90,90-90l0,0c49.7,0,90,40.3,90,90
				V841.7z"/>
		</g>
		<g>
			<path class="st8" d="M342.9,818.9c0,49.7-40.3,90-90,90l0,0c-49.7,0-90-40.3-90-90V717.8c0-49.7,40.3-90,90-90l0,0
				c49.7,0,90,40.3,90,90V818.9z"/>
		</g>
		<g>
			<path class="st2" d="M341.8,727.6c0-64.5-41.2-99.7-88.8-99.7c-47.6,0-88.8,36.7-88.8,99.7H341.8z"/>
		</g>
		<line class="st14" x1="253" y1="627.8" x2="253" y2="695.6"/>
		<g>
			<path d="M266.8,746c0,6.4-6.2,11.7-13.9,11.7l0,0c-7.7,0-13.9-5.2-13.9-11.7v-48.9c0-6.4,6.2-11.7,13.9-11.7l0,0
				c7.7,0,13.9,5.2,13.9,11.7V746z"/>
		</g>
	</g>
</g>
<g id="Layer_7">
	<g>
		<g class="st7">
			<polygon points="643.9,636 661.5,638.8 658.3,590.9 640.6,595 642.9,530.8 630.9,605.5 649,604.7 			"/>
			<polygon points="813.8,636 831.4,638.8 828.1,590.9 810.5,595 812.8,530.8 800.8,605.5 818.9,604.7 			"/>
			<path d="M856.7,651.4L856.7,651.4l-59.9,0v46.7v28.3l0,0v83.1c0,20.2-17.6,37.8-37.8,37.8h-45.2c-10.1,0-19.6-3.9-26.7-11.1
				c-7.1-7.2-11.1-16.7-11.1-26.7v-83.1v-10.6v-17.7v-46.7h-59.9v46.7v28.3h0l0,83.1c0,26.1,10.2,50.6,28.6,69
				c18.5,18.5,43,28.6,69,28.6H759c26.1,0,50.6-10.1,69.1-28.6c18.5-18.4,28.6-43,28.6-69v-93.6v-18.1V651.4L856.7,651.4z"/>
		</g>
		<g>
			<polygon class="st5" points="641.3,622.4 638.1,574.5 620.4,578.6 622.8,514.4 610.7,589 628.8,588.3 623.8,619.6 			"/>
			<polygon class="st5" points="811.2,622.4 808,574.5 790.3,578.6 792.6,514.4 780.6,589 798.7,588.3 793.7,619.6 			"/>
			<g>
				<path class="st15" d="M776.7,695.6v3.8V793c0,20.2-17.6,37.8-37.8,37.8h-45.2c-10.1,0-19.6-3.9-26.7-11.1
					c-7.1-7.2-11.1-16.7-11.1-26.7v-93.6l0-3.8h-59.9l0,3.8l0,93.6c0,26.1,10.2,50.6,28.6,69c18.5,18.5,43,28.6,69,28.6h45.2
					c26.1,0,50.6-10.1,69.1-28.6c18.5-18.4,28.6-43,28.6-69v-93.6v-3.8H776.7z"/>
				<rect x="596.1" y="651.3" class="st9" width="59.9" height="44.6"/>
				<rect x="776.7" y="651.3" class="st2" width="59.9" height="44.6"/>
				<rect x="596.1" y="696" class="st16" width="59.9" height="14"/>
				<rect x="776.7" y="696" class="st16" width="59.9" height="14"/>
			</g>
		</g>
	</g>
</g>
<g id="Layer_5">
	<g>
		<g class="st7">
			<path d="M1323,907.5c0,13.6-11,24.5-24.5,24.5H993.1c-13.6,0-24.5-11-24.5-24.5V705.5c0-13.5,11-24.5,24.5-24.5h305.4
				c13.6,0,24.5,11,24.5,24.5V907.5z"/>
		</g>
		<g>
			<path class="st13" d="M1293.2,678.7v226.6H938.7V678.7c0-13.6,11-24.5,24.5-24.5h305.4C1282.2,654.2,1293.2,665.2,1293.2,678.7z"
				/>
		</g>
		<g>
			<rect x="958.8" y="701" class="st17" width="314.3" height="184.2"/>
		</g>
		<g>
			<rect x="958.8" y="701" class="st5" width="314.3" height="127.5"/>
		</g>
		<g>
			<ellipse class="st18" cx="1025.8" cy="678.7" rx="8.2" ry="8.2"/>
		</g>
		<g>
			<path class="st19" d="M1004.6,678.7c0,4.5-3.7,8.2-8.2,8.2c-4.5,0-8.2-3.7-8.2-8.2c0-4.5,3.7-8.2,8.2-8.2
				C1000.9,670.5,1004.6,674.2,1004.6,678.7z"/>
		</g>
		<g>
			<ellipse class="st17" cx="967" cy="678.7" rx="8.2" ry="8.2"/>
		</g>
		<g>
			<g>
				<path class="st18" d="M1154.9,767.3l-64.5,37.3c-1.7,1-4.3-0.1-4.3-2.5v-74.5c0-1.8,1.5-2.9,2.9-2.9c0.5,0,1,0.1,1.4,0.4
					l64.5,37.3c1.3,0.8,1.5,2,1.5,2.5C1156.4,765.3,1156.2,766.6,1154.9,767.3z"/>
			</g>
		</g>
		<g>
			<rect x="991.9" y="854.9" class="st18" width="245.8" height="9.1"/>
		</g>
		<g>
			<rect x="1099.6" y="854.9" width="138.1" height="9.1"/>
		</g>
		<g>
			<circle class="st18" cx="1099.6" cy="859.5" r="9.9"/>
		</g>
	</g>
</g>
<g id="Layer_6">
	<g>
		<g class="st7">
			<rect x="441.7" y="585" width="95.7" height="95.7"/>
		</g>
		<g>
			<g>
				<rect x="419.6" y="564.1" class="st5" width="95.7" height="95.7"/>
			</g>
		</g>
		<g>
			<g>
				<path class="st13" d="M447.4,632.7c0,4.1,2.9,5.7,6.4,3.6l33.5-20.4c3.5-2.2,3.5-5.7,0-7.8l-33.5-20.4c-3.5-2.2-6.4-0.5-6.4,3.6
					V632.7z"/>
			</g>
		</g>
	</g>
	<g>
		<g class="st7">
			<rect x="1286.2" y="70.1" width="95.7" height="95.7"/>
		</g>
		<g>
			<g>
				<rect x="1264.1" y="49.2" class="st5" width="95.7" height="95.7"/>
			</g>
		</g>
		<g>
			<g>
				<path class="st13" d="M1310.1,116.3c0,3.8,2.7,5.3,5.9,3.3l30.9-18.9c3.3-2,3.3-5.2,0-7.2l-30.9-18.9c-3.3-2-5.9-0.5-5.9,3.3
					V116.3z"/>
			</g>
		</g>
		<g>
			<g>
				<path class="st13" d="M1280.4,116.3c0,3.8,2.7,5.3,5.9,3.3l30.9-18.9c3.3-2,3.3-5.2,0-7.2l-30.9-18.9c-3.3-2-5.9-0.5-5.9,3.3
					V116.3z"/>
			</g>
		</g>
	</g>
</g>
<g id="Layer_8">
	<g>
		<g class="st7">
			<path d="M559.3,846.1c0,33.8-27.4,61.2-61.2,61.2c-33.8,0-61.2-27.4-61.2-61.2c0-33.8,27.4-61.2,61.2-61.2
				C531.9,784.9,559.3,812.3,559.3,846.1z"/>
		</g>
		<g>
			<path class="st18" d="M542.1,830.5c0,33.8-27.4,61.2-61.2,61.2c-33.8,0-61.2-27.4-61.2-61.2c0-33.8,27.4-61.2,61.2-61.2
				C514.7,769.3,542.1,796.7,542.1,830.5z"/>
		</g>
		<g id="XMLID_120_">
			<path class="st8" d="M480.6,795.1c-1.3-0.5-2.7-0.2-3.7,0.8l-16.7,16.8H452c-1.9,0-3.4,1.5-3.4,3.4v29c0,1.9,1.5,3.4,3.4,3.4h8.3
				l16.7,16.8c0.7,0.7,1.5,1,2.4,1c0.4,0,0.8-0.1,1.2-0.3c1.3-0.5,2-1.8,2-3.1v-64.7C482.6,796.8,481.9,795.6,480.6,795.1z
				 M495.6,844.9c-0.7,0.8-1.6,1.1-2.5,1.1c-0.8,0-1.6-0.3-2.3-0.9c-1.4-1.3-1.5-3.4-0.3-4.8c8.5-9.5,0.9-18.7,0-19.8
				c-1.2-1.4-1.1-3.6,0.3-4.8c1.4-1.2,3.5-1.1,4.8,0.3C500,821.1,505.7,833.6,495.6,844.9z M511.6,854.1c-0.7,0.8-1.6,1.1-2.5,1.1
				c-0.8,0-1.6-0.3-2.3-0.9c-1.4-1.2-1.5-3.4-0.3-4.8c16.6-18.7,0.7-37.2,0-38c-1.2-1.4-1.1-3.6,0.3-4.8c1.4-1.2,3.6-1.1,4.8,0.3
				C511.8,807.3,532.3,830.8,511.6,854.1z"/>
		</g>
	</g>
</g>
<g id="Layer_10">
	<g>
		<g class="st7">
			<path d="M363.5,585.7c0,4.4-3.6,8-8,8H163.8c-4.4,0-8-3.6-8-8V479.1c0-4.4,3.6-8,8-8h191.7c4.4,0,8,3.6,8,8V585.7z"/>
		</g>
		<g>
			<path class="st8" d="M350.2,572.3c0,4.4-3.6,8-8,8H150.5c-4.4,0-8-3.6-8-8V465.7c0-4.4,3.6-8,8-8h191.7c4.4,0,8,3.6,8,8V572.3z"
				/>
		</g>
		<g>
			<path d="M174.1,538.1l-12.4-40.6h7.1l6.5,23.5l2.4,8.7c0.1-0.4,0.8-3.2,2.1-8.4l6.5-23.8h7.1l6.1,23.6l2,7.8l2.3-7.8l7-23.5h6.7
				l-12.7,40.6h-7.2l-6.5-24.3l-1.6-6.9l-8.2,31.3H174.1z"/>
			<path d="M230.6,538.1l-12.4-40.6h7.1l6.5,23.5l2.4,8.7c0.1-0.4,0.8-3.2,2.1-8.4l6.5-23.8h7.1l6.1,23.6l2,7.8l2.3-7.8l7-23.5h6.7
				l-12.7,40.6h-7.2l-6.5-24.3l-1.6-6.9l-8.2,31.3H230.6z"/>
			<path d="M287.2,538.1l-12.4-40.6h7.1l6.5,23.5l2.4,8.7c0.1-0.4,0.8-3.2,2.1-8.4l6.5-23.8h7.1l6.1,23.6l2,7.8l2.3-7.8l7-23.5h6.7
				l-12.7,40.6h-7.2l-6.5-24.3l-1.6-6.9l-8.2,31.3H287.2z"/>
		</g>
	</g>
</g>
<g id="Layer_9">
	<g>
		<g>
			<g>
				<g>
					<g>
						<g>
							<g>
								<g>
									<g>
										<path d="M98.8,683.6l-7.9-7.9c-0.8-0.8-0.8-1.8,0-2.6c0.8-0.8,1.9-0.8,2.6,0l7.9,7.9c0.8,0.8,0.8,1.8,0,2.6
											C100.7,684.4,99.6,684.4,98.8,683.6z"/>
									</g>
								</g>
							</g>
						</g>
					</g>
				</g>
				<g>
					<g>
						<g>
							<g>
								<g>
									<g>
										<path d="M90.9,683.6c-0.8-0.8-0.8-1.8,0-2.6l7.9-7.9c0.8-0.8,1.9-0.8,2.6,0c0.8,0.8,0.8,1.8,0,2.6l-7.9,7.9
											C92.8,684.4,91.7,684.4,90.9,683.6z"/>
									</g>
								</g>
							</g>
						</g>
					</g>
				</g>
			</g>
		</g>
		<g>
			<g>
				<g>
					<g>
						<g>
							<g>
								<g>
									<g>
										<path d="M249.8,95l-7.9-7.9c-0.8-0.8-0.8-1.8,0-2.6c0.8-0.8,1.9-0.8,2.6,0l7.9,7.9c0.8,0.8,0.8,1.8,0,2.6
											C251.6,95.8,250.6,95.8,249.8,95z"/>
									</g>
								</g>
							</g>
						</g>
					</g>
				</g>
				<g>
					<g>
						<g>
							<g>
								<g>
									<g>
										<path d="M241.9,95c-0.8-0.8-0.8-1.8,0-2.6l7.9-7.9c0.8-0.8,1.9-0.8,2.6,0c0.8,0.8,0.8,1.8,0,2.6l-7.9,7.9
											C243.7,95.8,242.7,95.8,241.9,95z"/>
									</g>
								</g>
							</g>
						</g>
					</g>
				</g>
			</g>
		</g>
		<g>
			<g>
				<g>
					<g>
						<g>
							<g>
								<g>
									<g>
										<path d="M1328.9,643.3l7.9-7.9c0.7-0.7,1.8-0.8,2.5-0.2c1,0.8,1,2,0.2,2.8l-7.9,7.9c-0.8,0.8-1.8,0.8-2.6,0
											C1328.1,645.1,1328.1,644.1,1328.9,643.3z"/>
									</g>
								</g>
							</g>
						</g>
					</g>
				</g>
				<g>
					<g>
						<g>
							<g>
								<g>
									<g>
										<path d="M1328.9,635.4c0.8-0.8,1.8-0.8,2.6,0l7.9,7.9c0.7,0.7,0.8,1.8,0.2,2.5c-0.8,1-1.9,1-2.8,0.2l-7.9-7.9
											C1328.1,637.2,1328.1,636.1,1328.9,635.4z"/>
									</g>
								</g>
							</g>
						</g>
					</g>
				</g>
			</g>
		</g>
		<g>
			<g>
				<g>
					<g>
						<g>
							<g>
								<g>
									<g>
										<path d="M410.1,139.2l-7.9-7.9c-0.8-0.8-0.8-1.8,0-2.6c0.8-0.8,1.9-0.8,2.6,0l7.9,7.9c0.8,0.8,0.8,1.8,0,2.6
											C412,140,410.9,140,410.1,139.2z"/>
									</g>
								</g>
							</g>
						</g>
					</g>
				</g>
				<g>
					<g>
						<g>
							<g>
								<g>
									<g>
										<path d="M402.2,139.2c-0.8-0.8-0.8-1.8,0-2.6l7.9-7.9c0.8-0.8,1.9-0.8,2.6,0c0.8,0.8,0.8,1.8,0,2.6l-7.9,7.9
											C404,140,403,140,402.2,139.2z"/>
									</g>
								</g>
							</g>
						</g>
					</g>
				</g>
			</g>
		</g>
		<g>
			<g>
				<g>
					<g>
						<g>
							<g>
								<g>
									<g>
										<path d="M878.6,918.3l-7.9-7.9c-0.8-0.8-0.8-1.8,0-2.6c0.8-0.8,1.9-0.8,2.6,0l7.9,7.9c0.8,0.8,0.8,1.8,0,2.6
											C880.5,919.1,879.4,919.1,878.6,918.3z"/>
									</g>
								</g>
							</g>
						</g>
					</g>
				</g>
				<g>
					<g>
						<g>
							<g>
								<g>
									<g>
										<path d="M870.7,918.3c-0.8-0.8-0.8-1.8,0-2.6l7.9-7.9c0.8-0.8,1.9-0.8,2.6,0c0.8,0.8,0.8,1.8,0,2.6l-7.9,7.9
											C872.5,919.1,871.5,919,870.7,918.3z"/>
									</g>
								</g>
							</g>
						</g>
					</g>
				</g>
			</g>
		</g>
		<g>
			<g>
				<line class="st1" x1="1039.9" y1="111" x2="970.1" y2="111"/>
			</g>
			<g>
				<rect x="970.1" y="109.1" width="69.8" height="3.7"/>
			</g>
		</g>
		<g>
			<g>
				<line class="st1" x1="1022.1" y1="120.4" x2="1001.1" y2="120.4"/>
			</g>
			<g>
				<rect x="1001.1" y="118.5" width="21" height="3.7"/>
			</g>
		</g>
		<g>
			<g>
				<line class="st1" x1="503.5" y1="717.1" x2="433.8" y2="717.1"/>
			</g>
			<g>
				<rect x="433.8" y="715.3" width="69.8" height="3.7"/>
			</g>
		</g>
		<g>
			<g>
				<line class="st1" x1="485.7" y1="726.5" x2="464.7" y2="726.5"/>
			</g>
			<g>
				<rect x="464.7" y="724.7" width="21" height="3.7"/>
			</g>
		</g>
		<g>
			<g>
				<circle class="st1" cx="1105.4" cy="95.3" r="9.4"/>
			</g>
			<g>
				<path d="M1105.4,106.5c-6.2,0-11.2-5-11.2-11.2c0-6.2,5-11.2,11.2-11.2c6.2,0,11.2,5,11.2,11.2
					C1116.7,101.5,1111.6,106.5,1105.4,106.5z M1105.4,87.7c-4.2,0-7.5,3.4-7.5,7.5c0,4.2,3.4,7.5,7.5,7.5c4.2,0,7.5-3.4,7.5-7.5
					C1113,91.1,1109.6,87.7,1105.4,87.7z"/>
			</g>
		</g>
		<g>
			<g>
				<circle class="st1" cx="716.3" cy="727.6" r="9.4"/>
			</g>
			<g>
				<path d="M716.3,738.8c-6.2,0-11.2-5-11.2-11.2c0-6.2,5-11.2,11.2-11.2c6.2,0,11.2,5,11.2,11.2
					C727.6,733.8,722.5,738.8,716.3,738.8z M716.3,720c-4.2,0-7.5,3.4-7.5,7.5c0,4.2,3.4,7.5,7.5,7.5c4.2,0,7.5-3.4,7.5-7.5
					C723.9,723.4,720.5,720,716.3,720z"/>
			</g>
		</g>
		<g>
			<g>
				<path class="st1" d="M1338.6,571c-6.4,1-11.9-4.4-10.8-10.8c0.6-3.9,3.8-7,7.7-7.7c6.4-1.1,11.9,4.4,10.8,10.9
					C1345.7,567.3,1342.5,570.4,1338.6,571z"/>
			</g>
			<g>
				<path d="M1326,563.7c-1.3-7.7,5.3-14.2,13-13c4.6,0.8,8.4,4.5,9.2,9.2c1.3,7.7-5.3,14.2-13,13
					C1330.5,572.1,1326.7,568.3,1326,563.7z M1344.4,563.3c1-5.3-3.6-9.9-8.9-8.9c-3,0.6-5.4,3-5.9,5.9c-1,5.3,3.6,9.9,8.9,8.9
					C1341.5,568.6,1343.9,566.2,1344.4,563.3z"/>
			</g>
		</g>
		<g>
			<g>
				<circle class="st1" cx="1292.9" cy="294.6" r="9.4"/>
			</g>
			<g>
				<path d="M1292.9,305.9c-6.2,0-11.2-5-11.2-11.2c0-6.2,5-11.2,11.2-11.2s11.2,5,11.2,11.2
					C1304.1,300.8,1299.1,305.9,1292.9,305.9z M1292.9,287.1c-4.2,0-7.5,3.4-7.5,7.5c0,4.2,3.4,7.5,7.5,7.5s7.5-3.4,7.5-7.5
					C1300.4,290.5,1297.1,287.1,1292.9,287.1z"/>
			</g>
		</g>
		<g>
			<g>
				<line class="st1" x1="1001.5" y1="534.2" x2="931.7" y2="534.2"/>
			</g>
			<g>
				<rect x="931.7" y="532.4" width="69.8" height="3.7"/>
			</g>
		</g>
		<g>
			<g>
				<line class="st1" x1="983.7" y1="543.6" x2="962.7" y2="543.6"/>
			</g>
			<g>
				<rect x="962.7" y="541.7" width="21" height="3.7"/>
			</g>
		</g>
		<g>
			<g>
				<line class="st1" x1="67.6" y1="610.7" x2="46.6" y2="610.7"/>
			</g>
			<g>
				<rect x="46.6" y="608.8" width="21" height="3.7"/>
			</g>
		</g>
		<g>
			<g>
				<line class="st1" x1="97.9" y1="610.7" x2="76.9" y2="610.7"/>
			</g>
			<g>
				<rect x="76.9" y="608.8" width="21" height="3.7"/>
			</g>
		</g>
		<g>
			<g>
				<line class="st1" x1="88.4" y1="619.6" x2="57.1" y2="619.6"/>
			</g>
			<g>
				<rect x="57.1" y="617.7" width="31.3" height="3.7"/>
			</g>
		</g>
		<g>
			<g>
				<line class="st1" x1="339" y1="47.8" x2="301.7" y2="47.8"/>
			</g>
			<g>
				<rect x="301.7" y="46" width="37.3" height="3.7"/>
			</g>
		</g>
		<g>
			<g>
				<line class="st1" x1="322.2" y1="56.7" x2="266.5" y2="56.7"/>
			</g>
			<g>
				<rect x="266.5" y="54.9" width="55.7" height="3.7"/>
			</g>
		</g>
		<g>
			<g>
				<g>
					<g>
						<g>
							<g>
								<g>
									<g>
										<path d="M1046.5,74.7l-7.9-7.9c-0.8-0.8-0.8-1.8,0-2.6c0.8-0.8,1.9-0.8,2.6,0l7.9,7.9c0.8,0.8,0.8,1.8,0,2.6
											C1048.3,75.5,1047.3,75.5,1046.5,74.7z"/>
									</g>
								</g>
							</g>
						</g>
					</g>
				</g>
				<g>
					<g>
						<g>
							<g>
								<g>
									<g>
										<path d="M1038.6,74.7c-0.8-0.8-0.8-1.8,0-2.6l7.9-7.9c0.8-0.8,1.9-0.8,2.6,0c0.8,0.8,0.8,1.8,0,2.6l-7.9,7.9
											C1040.4,75.5,1039.4,75.5,1038.6,74.7z"/>
									</g>
								</g>
							</g>
						</g>
					</g>
				</g>
			</g>
		</g>
		<g>
			<g>
				<line class="st1" x1="117.3" y1="893.5" x2="47.6" y2="893.5"/>
			</g>
			<g>
				<rect x="47.6" y="891.6" width="69.8" height="3.7"/>
			</g>
		</g>
		<g>
			<g>
				<line class="st1" x1="99.5" y1="902.8" x2="78.6" y2="902.8"/>
			</g>
			<g>
				<rect x="78.6" y="901" width="21" height="3.7"/>
			</g>
		</g>
		<g>
			<g>
				<g>
					<g>
						<g>
							<g>
								<g>
									<g>
										<path d="M123.9,857.2l-7.9-7.9c-0.8-0.8-0.8-1.8,0-2.6c0.8-0.8,1.9-0.8,2.6,0l7.9,7.9c0.8,0.8,0.8,1.8,0,2.6
											C125.8,858,124.7,858,123.9,857.2z"/>
									</g>
								</g>
							</g>
						</g>
					</g>
				</g>
				<g>
					<g>
						<g>
							<g>
								<g>
									<g>
										<path d="M116,857.2c-0.8-0.8-0.8-1.8,0-2.6l7.9-7.9c0.8-0.8,1.9-0.8,2.6,0c0.8,0.8,0.8,1.8,0,2.6l-7.9,7.9
											C117.9,858,116.8,858,116,857.2z"/>
									</g>
								</g>
							</g>
						</g>
					</g>
				</g>
			</g>
		</g>
		<g>
			<g>
				<g>
					<g>
						<g>
							<g>
								<g>
									<g>
										<path d="M975.4,601.1l8-7.9c0.8-0.8,1.9-0.8,2.6,0c0.8,0.8,0.8,1.9,0,2.6l-8,7.9c-0.8,0.8-1.9,0.8-2.6,0
											C974.6,603,974.6,601.9,975.4,601.1z"/>
									</g>
								</g>
							</g>
						</g>
					</g>
				</g>
				<g>
					<g>
						<g>
							<g>
								<g>
									<g>
										<path d="M975.5,593.2c0.8-0.8,1.8-0.8,2.6,0l7.8,7.9c0.7,0.7,0.8,1.8,0.2,2.5c-0.8,1-2,1-2.8,0.2l-7.9-8
											C974.7,595.1,974.7,594,975.5,593.2z"/>
									</g>
								</g>
							</g>
						</g>
					</g>
				</g>
			</g>
		</g>
		<g>
			<g>
				<g>
					<g>
						<g>
							<g>
								<g>
									<g>
										<path d="M876.6,578.1l8-7.9c0.8-0.8,1.9-0.8,2.6,0c0.8,0.8,0.8,1.9,0,2.6l-7.9,7.8c-0.7,0.7-1.8,0.8-2.5,0.2
											C875.8,580.1,875.7,579,876.6,578.1z"/>
									</g>
								</g>
							</g>
						</g>
					</g>
				</g>
				<g>
					<g>
						<g>
							<g>
								<g>
									<g>
										<path d="M876.6,570.2c0.8-0.8,1.8-0.8,2.6,0l7.8,7.9c0.7,0.7,0.8,1.8,0.2,2.5c-0.8,1-2,1-2.8,0.2l-7.9-8
											C875.8,572.1,875.8,571,876.6,570.2z"/>
									</g>
								</g>
							</g>
						</g>
					</g>
				</g>
			</g>
		</g>
		<g>
			<g>
				<g>
					<g>
						<g>
							<g>
								<g>
									<g>
										<path d="M1339.4,306.8l-7-7c-0.7-0.7-0.7-1.6,0-2.3c0.7-0.7,1.6-0.7,2.3,0l7,7c0.7,0.7,0.7,1.6,0,2.3
											C1341,307.5,1340.1,307.5,1339.4,306.8z"/>
									</g>
								</g>
							</g>
						</g>
					</g>
				</g>
				<g>
					<g>
						<g>
							<g>
								<g>
									<g>
										<path d="M1332.4,306.8c-0.7-0.7-0.7-1.6,0-2.3l7-7c0.7-0.7,1.6-0.7,2.3,0c0.7,0.7,0.7,1.6,0,2.3l-7,7
											C1334,307.5,1333.1,307.5,1332.4,306.8z"/>
									</g>
								</g>
							</g>
						</g>
					</g>
				</g>
			</g>
		</g>
		<g>
			<g>
				<circle class="st1" cx="102.3" cy="92.2" r="9.4"/>
			</g>
			<g>
				<path d="M102.3,103.4c-6.2,0-11.2-5-11.2-11.2c0-6.2,5-11.2,11.2-11.2s11.2,5,11.2,11.2C113.5,98.4,108.4,103.4,102.3,103.4z
					 M102.3,84.6c-4.2,0-7.5,3.4-7.5,7.5c0,4.2,3.4,7.5,7.5,7.5s7.5-3.4,7.5-7.5C109.8,88,106.4,84.6,102.3,84.6z"/>
			</g>
		</g>
		<g>
			<g>
				<g>
					<g>
						<g>
							<g>
								<g>
									<g>
										<path d="M148.7,104.3l-7-7c-0.7-0.7-0.7-1.6,0-2.3c0.7-0.7,1.6-0.7,2.3,0l7,7c0.7,0.7,0.7,1.6,0,2.3
											C150.4,105,149.4,105,148.7,104.3z"/>
									</g>
								</g>
							</g>
						</g>
					</g>
				</g>
				<g>
					<g>
						<g>
							<g>
								<g>
									<g>
										<path d="M141.8,104.3c-0.7-0.7-0.7-1.6,0-2.3l7-7c0.7-0.7,1.6-0.7,2.3,0c0.7,0.7,0.7,1.6,0,2.3l-7,7
											C143.4,105,142.5,105,141.8,104.3z"/>
									</g>
								</g>
							</g>
						</g>
					</g>
				</g>
			</g>
		</g>
		<g>
			<g>
				<circle class="st1" cx="311.5" cy="410.9" r="9.4"/>
			</g>
			<g>
				<path d="M311.5,422.1c-6.2,0-11.2-5-11.2-11.2c0-6.2,5-11.2,11.2-11.2c6.2,0,11.2,5,11.2,11.2
					C322.7,417.1,317.7,422.1,311.5,422.1z M311.5,403.4c-4.2,0-7.5,3.4-7.5,7.5c0,4.2,3.4,7.5,7.5,7.5c4.2,0,7.5-3.4,7.5-7.5
					C319.1,406.8,315.7,403.4,311.5,403.4z"/>
			</g>
		</g>
		<g>
			<g>
				<g>
					<g>
						<g>
							<g>
								<g>
									<g>
										<path d="M358,423l-7-7c-0.7-0.7-0.7-1.6,0-2.3c0.7-0.7,1.6-0.7,2.3,0l7,7c0.7,0.7,0.7,1.6,0,2.3
											C359.6,423.7,358.7,423.7,358,423z"/>
									</g>
								</g>
							</g>
						</g>
					</g>
				</g>
				<g>
					<g>
						<g>
							<g>
								<g>
									<g>
										<path d="M351,423c-0.7-0.7-0.7-1.6,0-2.3l7-7c0.7-0.7,1.6-0.7,2.3,0c0.7,0.7,0.7,1.6,0,2.3l-7,7
											C352.6,423.7,351.7,423.7,351,423z"/>
									</g>
								</g>
							</g>
						</g>
					</g>
				</g>
			</g>
		</g>
	</g>
</g>
</svg>
