<?xml version="1.0" encoding="utf-8"?>
<!-- Generator: Adobe Illustrator 21.0.0, SVG Export Plug-In . SVG Version: 6.00 Build 0)  -->
<svg version="1.1" id="Layer_1" xmlns="http://www.w3.org/2000/svg" xmlns:xlink="http://www.w3.org/1999/xlink" x="0px" y="0px"
	 viewBox="0 0 1400 980" style="enable-background:new 0 0 1400 980;" xml:space="preserve">
<style type="text/css">
	.st0{fill:#FFFFFF;}
	.st1{fill:#B5DDE5;}
	.st2{fill:#7399C5;}
	.st3{fill:#DC2D2D;}
	.st4{fill:#F4CE51;}
	.st5{fill:#ADD483;}
	.st6{fill:#F4CE4F;}
	.st7{fill:#D8AE25;}
	.st8{fill:#F9D343;}
	.st9{fill:#31448F;}
	.st10{fill:#CB479B;}
	.st11{fill:#C6A3CD;}
	.st12{opacity:0.77;fill:#FFFFFF;}
	.st13{fill:#4C2487;}
	.st14{fill:#F48F97;}
	.st15{fill:#FFC100;}
	.st16{fill:#E5AB05;}
	.st17{fill:#8C6B0C;}
	.st18{fill:#5B5A59;}
	.st19{font-family:'Montserrat-Regular';}
	.st20{font-size:23.1059px;}
</style>
<rect class="st0" width="1400" height="980"/>
<g>
	<rect x="1057.6" y="179.1" class="st1" width="232.9" height="149.5"/>
	<rect x="1057.6" y="179.1" class="st2" width="232.9" height="33.1"/>
	<circle class="st3" cx="1073.8" cy="196.7" r="6.3"/>
	<circle class="st4" cx="1098.4" cy="196.7" r="6.3"/>
	<circle class="st5" cx="1122.4" cy="196.7" r="6.3"/>
	<polygon class="st3" points="1229.2,302.7 1211.2,286.3 1187.7,286.5 1207.5,235.7 1249,251.8 	"/>
	<polygon class="st3" points="1276.3,302.7 1294.3,286.3 1317.8,286.5 1298,235.7 1256.5,251.8 	"/>
	<circle class="st6" cx="1251.8" cy="200.6" r="62.5"/>
	<circle class="st7" cx="1251.8" cy="200.6" r="45.3"/>
	<circle class="st8" cx="1251.8" cy="200.6" r="37.6"/>
	<polygon class="st9" points="1250.8,173.9 1258.5,189.7 1275.9,192.2 1263.3,204.4 1266.3,221.7 1250.8,213.6 1235.2,221.7 
		1238.2,204.4 1225.6,192.2 1243,189.7 	"/>
</g>
<g>
	<path class="st10" d="M523.4,227.8v-27.2h-12.4c-0.6-1.5-1.3-3-2-4.4l8.9-8.9l-19.2-19.2l-9.4,9.4c-1.3-0.6-2.6-1.1-3.9-1.5v-13.4
		h-27.2V176c-1.3,0.4-2.6,1-3.9,1.5l-9.4-9.4l-19.2,19.2l8.9,8.9c-0.8,1.4-1.4,2.9-2,4.4h-12.4v27.2h11.2c0.6,1.9,1.3,3.7,2.1,5.5
		l-7.8,7.8l19.2,19.2l7.2-7.2c1.9,1,4,1.9,6.1,2.6v10.1h27.2v-10.1c2.1-0.7,4.1-1.6,6.1-2.6l7.2,7.2l19.2-19.2l-7.8-7.8
		c0.8-1.8,1.5-3.6,2.1-5.5H523.4z M471.8,233.8c-9.9,0-17.9-8-17.9-17.9c0-9.9,8-17.9,17.9-17.9s17.9,8,17.9,17.9
		C489.7,225.8,481.7,233.8,471.8,233.8z"/>
	<path class="st11" d="M595.2,221.3c-7.1-25.7-30.6-44.6-58.5-44.6c-30.5,0-55.7,22.5-60,51.8c-27.2,1.1-49,23.5-49,51
		c0,28.2,22.9,51.1,51.1,51.1c22,0,89.8,0,112.2,0c30.2,0,54.7-24.5,54.7-54.7C645.7,247.1,623.4,223.5,595.2,221.3z"/>
	<g>
		
			<ellipse transform="matrix(0.9124 -0.4092 0.4092 0.9124 -46.1935 257.5757)" class="st12" cx="578.8" cy="236.7" rx="34.9" ry="34.9"/>
		<path class="st13" d="M628,214.7c-12.2-27.2-44.1-39.3-71.3-27.1c-27.2,12.2-39.3,44.1-27.1,71.3c12.2,27.2,44.1,39.3,71.3,27.1
			C628,273.7,640.2,241.8,628,214.7z M593.1,268.6c-17.6,7.9-38.2,0-46.1-17.6s0-38.2,17.6-46.1c17.6-7.9,38.2,0,46.1,17.6
			C618.5,240,610.7,260.7,593.1,268.6z"/>
		
			<rect x="600.8" y="287.8" transform="matrix(0.9124 -0.4092 0.4092 0.9124 -73.4017 277.5124)" class="st10" width="22" height="44.9"/>
		<path class="st13" d="M623.4,312.9l-17.4,7.8c-4.4,2-6.4,7.1-4.4,11.5l13,28.9c2,4.4,7.1,6.4,11.5,4.4l17.4-7.8
			c4.4-2,6.4-7.1,4.4-11.5l-13-28.9C632.9,312.9,627.8,310.9,623.4,312.9z"/>
		<path class="st13" d="M616.6,265.5l-41.5,18.6l5.8,13c1.2,2.7,4.3,3.9,7,2.7l31.8-14.3c2.7-1.2,3.9-4.3,2.7-7L616.6,265.5z"/>
	</g>
</g>
<g>
	<rect x="93.6" y="130.3" class="st1" width="141.1" height="37.1"/>
	<path class="st1" d="M262.2,151.5v194.1H134.1c-9.6,0-17.4-7.8-17.4-17.4v-198H241C252.7,130.3,262.2,139.8,262.2,151.5z"/>
	<path class="st2" d="M116.9,176.8v-29.2c0-9.6-7.8-17.4-17.4-17.4l0,0c-9.6,0-17.4,7.8-17.4,17.4v29.2H116.9z"/>
	<path class="st2" d="M281.3,299.1v29.2c0,4.8-1.9,9.1-5.1,12.3c-3.1,3.1-7.5,5.1-12.3,5.1c-9.6,0-17.4-7.8-17.4-17.4v-29.2H281.3z"
		/>
	<g>
		<path class="st2" d="M246.6,299.1h-95.2v29.2c0,4.8-1.9,9.1-5.1,12.3c-3.1,3.1-7.5,5.1-12.3,5.1H264L246.6,299.1z"/>
		<path class="st1" d="M116.7,299.1v29.2c0,9.6,7.8,17.4,17.4,17.4c4.8,0,9.1-1.9,12.3-5.1c3.1-3.1,5.1-7.5,5.1-12.3v-29.2H116.7z"
			/>
	</g>
	<g>
		<path class="st9" d="M219.6,229.6l-25,6.2l7.3,29.3c1.7,6.9,8.7,11.1,15.6,9.4h0c6.9-1.7,11.1-8.7,9.4-15.6L219.6,229.6z"/>
		<path class="st9" d="M170,207.9l5.6,22.6c1.9,7.7,11,12.2,21,10.5l32-5.5l-14.1-56.8l-30.9,10.1C174,192,168.1,200.3,170,207.9z"
			/>
		<path class="st2" d="M273.8,194.1c-0.3-1.3-0.6-2.5-0.9-3.8l-0.1,0c-5.5-21.2-11.3-43.5-11.3-43.5c-4.9,22.7-47,31.9-47,31.9
			l6.1,24.6l1.9,7.6l6.1,24.6c0,0,41.5-11.7,56.5,6.1c0,0-5.3-22.4-10.4-43.7l0.1,0C274.5,196.7,274.2,195.4,273.8,194.1z"/>
		<path class="st9" d="M272.6,140.4l-8.2,2c-2.1,0.5-3.3,2.6-2.8,4.7l23.2,93.3c0.5,2.1,2.6,3.3,4.7,2.8l8.2-2
			c2.1-0.5,3.3-2.6,2.8-4.7l-23.2-93.3C276.7,141.1,274.6,139.9,272.6,140.4z"/>
	</g>
	<polygon class="st9" points="330.4,151.4 300.8,175 298.3,170.3 327.8,146.7 	"/>
	<polygon class="st9" points="339.8,216 305.1,207.5 306,202 340.8,210.5 	"/>
	
		<rect x="306.1" y="181.8" transform="matrix(0.9856 -0.1689 0.1689 0.9856 -26.4991 57.5438)" class="st9" width="37.8" height="5.4"/>
</g>
<g>
	<g>
		<path class="st14" d="M861,126.3c-59.1,0-107.1,47.9-107.1,107.1c0,59.1,47.9,107.1,107.1,107.1s107.1-47.9,107.1-107.1
			C968.1,174.2,920.2,126.3,861,126.3z M861,319.9c-47.8,0-86.5-38.7-86.5-86.5s38.7-86.5,86.5-86.5s86.5,38.7,86.5,86.5
			S908.8,319.9,861,319.9z"/>
	</g>
	<g>
		<rect x="858.2" y="154.2" class="st14" width="5.6" height="15.7"/>
		<rect x="858.2" y="296.9" class="st14" width="5.6" height="15.7"/>
	</g>
	<g>
		<rect x="822.5" y="163.7" transform="matrix(0.866 -0.5 0.5 0.866 24.803 435.6613)" class="st14" width="5.6" height="15.7"/>
		<rect x="893.9" y="287.4" transform="matrix(0.866 -0.5 0.5 0.866 -27.4549 487.9193)" class="st14" width="5.6" height="15.7"/>
	</g>
	<g>
		<rect x="796.4" y="189.8" transform="matrix(0.5 -0.866 0.866 0.5 228.4209 790.9897)" class="st14" width="5.6" height="15.7"/>
		<rect x="920.1" y="261.2" transform="matrix(0.5 -0.866 0.866 0.5 228.4209 933.761)" class="st14" width="5.6" height="15.7"/>
	</g>
	<g>
		
			<rect x="786.8" y="225.5" transform="matrix(4.486373e-11 -1 1 4.486373e-11 556.2943 1023.0331)" class="st14" width="5.6" height="15.7"/>
		
			<rect x="929.6" y="225.5" transform="matrix(4.534779e-11 -1 1 4.534779e-11 699.0657 1165.8044)" class="st14" width="5.6" height="15.7"/>
	</g>
	<g>
		
			<rect x="796.4" y="261.2" transform="matrix(-0.5 -0.866 0.866 -0.5 965.8267 1095.7448)" class="st14" width="5.6" height="15.7"/>
		
			<rect x="920.1" y="189.8" transform="matrix(-0.5 -0.866 0.866 -0.5 1213.1139 1095.7448)" class="st14" width="5.6" height="15.7"/>
	</g>
	<g>
		
			<rect x="822.5" y="287.4" transform="matrix(-0.866 -0.5 0.5 -0.866 1392.5406 963.5126)" class="st14" width="5.6" height="15.7"/>
		
			<rect x="893.9" y="163.7" transform="matrix(-0.866 -0.5 0.5 -0.866 1587.5699 768.4833)" class="st14" width="5.6" height="15.7"/>
	</g>
	<path class="st3" d="M867,222.5V181c0-3.6-2.7-6.6-5.9-6.6c-3.3,0-5.9,2.9-5.9,6.6v41.4H867z"/>
	<path class="st3" d="M849.7,236.5l-16.8,16.8c-2.6,2.6-2.8,6.5-0.5,8.8c2.3,2.3,6.3,2.1,8.8-0.5l16.5-16.5
		C853.8,244,850.8,240.6,849.7,236.5z"/>
	<path class="st14" d="M861,218.5c-8.2,0-14.9,6.7-14.9,14.9c0,8.2,6.7,14.9,14.9,14.9s14.9-6.7,14.9-14.9
		C875.9,225.2,869.3,218.5,861,218.5z M861,240.8c-4.1,0-7.4-3.3-7.4-7.4c0-4.1,3.3-7.4,7.4-7.4s7.4,3.3,7.4,7.4
		C868.5,237.5,865.1,240.8,861,240.8z"/>
	<path class="st3" d="M895.5,263.9l-22.2-22.2c-0.5,0.7-1.1,1.4-1.7,2l22,22c0.5,0.5,1.3,0.5,1.9,0S896,264.5,895.5,263.9z"/>
</g>
<g>
	<path class="st2" d="M213.8,573.7l-7-23.6l-10.7,3.2c-0.9-1.2-1.9-2.3-2.9-3.3l5.4-10L177,528.2l-5.8,10.6
		c-1.2-0.2-2.5-0.3-3.8-0.3l-3.4-11.6l-23.6,7l3.4,11.6c-1,0.7-2,1.5-3,2.3l-10.6-5.8l-11.7,21.6l10,5.4c-0.3,1.4-0.5,2.9-0.6,4.4
		l-10.7,3.2l7,23.6l9.8-2.9c1,1.5,2.1,2.9,3.2,4.3l-4.8,8.8l21.6,11.7l4.4-8.1c1.9,0.4,3.9,0.6,5.9,0.7l2.6,8.8l23.6-7l-2.6-8.8
		c1.6-1.2,3.2-2.4,4.6-3.8l8.1,4.4l11.7-21.6l-8.8-4.8c0.2-1.7,0.4-3.5,0.4-5.3L213.8,573.7z M170.5,592.1
		c-8.6,2.5-17.6-2.4-20.2-11c-2.5-8.6,2.4-17.6,11-20.2c8.6-2.5,17.6,2.4,20.2,11C184,580.6,179.1,589.6,170.5,592.1z"/>
	<path class="st11" d="M133.5,597.5c-2.7,13.1-8.7,43.4-8.7,54.2l-18.7,49.8l18.3,0.8l-0.3,3.3c-0.2,3-0.2,6.6-0.1,9
		c0,1.6,0.9,3.1,2.2,3.9l5.9,3.7c-3.4,2.2-3.9,6.9-1,9.8l0.7,0.7c0,0,0,0.1,0,0.2c2.2,17.4,17,30.4,34.5,30.4h114.3V597.5H133.5z"/>
	<g>
		<path class="st15" d="M288.9,594.7c21.4-13.2,26.9-40.8,12.3-62.2c-4.5-6.5-11-12.3-19.9-15.9c-9.3-3.7-18.6-3.9-26.8-2.2
			c-24.6,5-39.7,27.6-34.3,51.4c0.4,1.6,0.6,2.5,0.6,2.5c2.3,5.8,2.6,15.1-0.1,20.1c-1.4,2.5,0.5,8.3,5.3,11.4l17.1,7.2l0.4,0.2
			l18.5,7.8c4.3,0.5,9.6-2.1,10.4-4.8c1.6-5.5,8.5-11.8,14.3-14.2C286.7,595.9,287.5,595.5,288.9,594.7z"/>
		<path class="st9" d="M269.4,610.9l-47.1-19.6c-2.1-0.9-4.5,0.1-5.3,2.2l-0.6,1.3c-0.9,2.1,0.1,4.5,2.2,5.3l47.1,19.6
			c2.1,0.9,4.5-0.1,5.3-2.2l0.6-1.3C272.4,614.2,271.4,611.8,269.4,610.9z"/>
		<path class="st9" d="M263.5,624.7l-47.1-19.6c-2.1-0.9-4.5,0.1-5.3,2.2l-0.6,1.3c-0.9,2.1,0.1,4.5,2.2,5.3l47.1,19.6
			c2.1,0.9,4.5-0.1,5.3-2.2l0.6-1.3C266.6,628,265.6,625.6,263.5,624.7z"/>
		
			<rect x="215.3" y="609.8" transform="matrix(0.9237 0.3832 -0.3832 0.9237 253.0948 -45.627)" class="st2" width="51.5" height="5.3"/>
		<path class="st2" d="M260.1,633.7l-47.6-19.7l-1,2.4c-0.6,1.4,0.1,3,1.5,3.5l42.6,17.7c1.4,0.6,3-0.1,3.5-1.5L260.1,633.7z"/>
		<path class="st9" d="M239.5,642.9l-19.1-7.9c-5-2.1-7.4-7.8-5.3-12.8l0.5-1.2l37.1,15.4l-0.5,1.2
			C250.2,642.6,244.5,644.9,239.5,642.9z"/>
	</g>
</g>
<g>
	<rect x="747.5" y="607.2" class="st1" width="210.6" height="135.2"/>
	<rect x="747.5" y="607.2" class="st2" width="210.6" height="29.9"/>
	<circle class="st3" cx="762.1" cy="623" r="5.7"/>
	<circle class="st4" cx="784.3" cy="623" r="5.7"/>
	<circle class="st5" cx="806" cy="623" r="5.7"/>
	<g>
		<path class="st16" d="M934.8,534.3H913c-15.9,0-28.8,12.9-28.8,28.8v47.3h79.3v-47.3C963.6,547.2,950.7,534.3,934.8,534.3z
			 M951.9,597.8h-55.9v-33.4c0-11.2,9.1-20.3,20.3-20.3h15.3c11.2,0,20.3,9.1,20.3,20.3V597.8z"/>
		<path class="st15" d="M952.5,674.6h-57.2c-12.2,0-22.1-9.9-22.1-22.1v-64.7h101.4v64.7C974.6,664.7,964.7,674.6,952.5,674.6z"/>
		<path class="st17" d="M936.1,617.2c0-6.7-5.4-12.2-12.2-12.2c-6.7,0-12.2,5.4-12.2,12.2c0,4,1.9,7.6,4.9,9.8l-3.9,21.4H935
			l-3.9-21.4C934.1,624.8,936.1,621.2,936.1,617.2z"/>
	</g>
</g>
<g>
	<g>
		<path class="st3" d="M517.8,616.4c0,0-39.8-4.4-53.1,8.5c-10.3,10-30.9,49.6-39.8,67c-1.9,3.8,0.9,8.2,5.2,8h0
			c6.9-0.3,13.4-3.1,18.2-8c11.3-11.3,33.8-31,50.7-27.9L517.8,616.4z"/>
		<path class="st3" d="M579.8,659.6c0,0,17.9,35.8,10.4,52.8c-5.8,13.1-35.8,46.1-49.1,60.5c-2.9,3.1-8,2-9.3-2.1v0
			c-2.1-6.5-1.7-13.6,1.2-19.9c6.7-14.5,17.4-42.5,8.6-57.3L579.8,659.6z"/>
	</g>
	<path class="st15" d="M534.4,709.2l-48.1-33.5v0c4.8-32.2,16.9-62.8,35.5-89.5l13.8-19.9c24.6-35.3,62.9-58.6,105.5-64.3h0l0.1,0.3
		c8.6,41.3-0.2,84.3-24.3,118.9l-19.8,28.4c-14.6,21-32.9,39.1-54,53.6L534.4,709.2z"/>
	<path class="st3" d="M635.1,586.4c9.8-26.7,12.1-55.8,6.2-84.1l-0.1-0.3v0c-29,3.8-56,15.9-78,34.3L635.1,586.4z"/>
	<g>
		
			<ellipse transform="matrix(0.5718 -0.8204 0.8204 0.5718 -246.9003 726.4994)" class="st3" cx="572.5" cy="599.8" rx="28.9" ry="28.9"/>
		
			<ellipse transform="matrix(0.5718 -0.8204 0.8204 0.5718 -246.9003 726.4994)" class="st0" cx="572.5" cy="599.8" rx="15.6" ry="15.6"/>
	</g>
	<polygon class="st3" points="503.3,726.2 477.7,737.5 479.4,709.6 518.9,652.9 539,650.4 542.8,669.5 	"/>
</g>
<g>
	<g>
		<circle class="st14" cx="1187.7" cy="642.1" r="71"/>
		<path class="st14" d="M1306.6,669.6V607h-18.5c-2.1-6-4.7-11.7-7.7-17.1l13.5-13.5l-44.3-44.3l-14.7,14.7
			c-5.1-2.5-10.4-4.7-16-6.4v-21h-62.6v21c-5.5,1.7-10.9,3.8-16,6.4l-14.7-14.7l-44.3,44.3l13.5,13.5c-3.1,5.4-5.7,11.2-7.7,17.1
			h-18.5v62.6h16.2c1.8,6.9,4.3,13.5,7.5,19.7l-10.9,10.9l44.3,44.3l9.8-9.8c6.6,3.7,13.6,6.7,20.9,9v13.5h62.6v-13.5
			c7.3-2.3,14.3-5.3,20.9-9l9.8,9.8l44.3-44.3l-10.9-10.9c3.1-6.3,5.6-12.9,7.5-19.7H1306.6z M1187.7,722.8
			c-44.6,0-80.7-36.1-80.7-80.7c0-44.6,36.1-80.7,80.7-80.7c44.6,0,80.7,36.1,80.7,80.7C1268.4,686.7,1232.3,722.8,1187.7,722.8z"/>
		<path class="st14" d="M1187.7,571.1c-39.2,0-71,31.8-71,71c0,15.1,4.7,29.1,12.8,40.6c12.8,18.4,34.1,30.4,58.2,30.4
			c24.2,0,45.6-12.1,58.4-30.6c7.9-11.5,12.6-25.4,12.6-40.3C1258.7,602.9,1226.9,571.1,1187.7,571.1z"/>
	</g>
	<path class="st3" d="M1246.1,682.4c-12.8,18.5-34.2,30.6-58.4,30.6c-24.1,0-45.4-12-58.2-30.4c1.3-0.9,2.7-1.7,4.1-2.3
		c10.7-5,22.5-8.5,30-10.5c4.7-1.2,7.9-5.4,7.9-10.2v-9.1c-8.6-5.6-9.9-14.4-9.9-14.4s-3.5-19.1-3.5-25.5c0-22.9,18.1-30,29.9-30
		h0.1c13.5,0,29.4,6.8,29.9,28.9c0,0.4,0,0.7,0,1.1c0,6.4-3.5,25.5-3.5,25.5s-1.3,8.9-9.9,14.4v9.2c0,4.8,3.2,9,7.9,10.2
		c7.6,2,19.4,5.6,30.2,10.7C1243.9,681.1,1245,681.8,1246.1,682.4z"/>
</g>
<text transform="matrix(1 0 0 1 121.1157 415.9712)" class="st18 st19 st20">PRESS RELEASE</text>
<text transform="matrix(1 0 0 1 443.0303 415.9712)" class="st18 st19 st20">SEARCH CLOUD</text>
<text transform="matrix(1 0 0 1 747.5596 415.9712)" class="st18 st19 st20">TIME MANAGEMENT</text>
<text transform="matrix(1 0 0 1 1119.1172 415.9712)" class="st18 st19 st20">WEB GOAL</text>
<text transform="matrix(1 0 0 1 1119.1172 823.9443)" class="st18 st19 st20">AUDIENCE</text>
<text transform="matrix(1 0 0 1 789.4526 823.9443)" class="st18 st19 st20">SECURITY</text>
<text transform="matrix(1 0 0 1 443.3525 823.9443)" class="st18 st19 st20">LAUNCH</text>
<text transform="matrix(1 0 0 1 121.4219 823.9443)" class="st18 st19 st20">BRAINSTORM</text>
</svg>
