<?xml version="1.0" standalone="yes"?>
<svg width="210" height="210">
<path style="fill:#ffffff; stroke:none;" d="M0 0L0 210L210 210L210 0L0 0z"/>
<path style="fill:#000000; stroke:none;" d="M2 2L2 45C2 50.2261 0.337927 58.911 2.6034 63.6975C4.675 68.0745 14.7659 70.212 19 71.8071C49.424 83.2689 70.0188 51.4557 95 41L87 57L70 59L67 61L67 62L71 61L65 64L66 67L32 78.8009L2 71L2 88L46 97L46 98L44 101L26 97L20 102L23 100L23 99L13 101L16 98L16 97L2 94L2 95L2 129L2 208L208 208L208 132L207 95L194.032 99.7276L194.075 111L200 144C192.217 143.386 173.943 147.444 170 140L180 142L165.028 133.683L160 108L159 108L158 111L154 110L155 133L151 131L141 141L140 139L141 133C147.237 129.52 151.613 123.156 152 116L138 127C137.999 120.204 137.992 112.488 129 115L125 107L130 107L130 105C118.3 104.619 120.151 90.0387 127 84C128.491 91.6992 133.64 95.5208 141 92L141 87L146 89L144 81L149 82C146.717 79.0267 143.94 76.0308 140 75.4691C137.402 75.0987 132.081 76.8015 130.211 74.169C126.944 69.5682 143.095 66.579 145.945 68.0424C154.758 72.5675 153.689 86.181 156 94L157 94L160 91L161 95L207 83L207 87L208 87L208 2L207 2C207 8.5062 209.909 24.562 204.566 29.1574C199.524 33.4949 190.151 33.0598 186 38L177 39L177 38L184 36C180.389 27.3892 171.65 34.6918 167 39C167.022 35.7998 164.787 38.2148 164 40L161 39L161 38L179 28L157 37C156.687 30.1234 145.995 26.605 140 27L188 3L188 2C182.486 2 175.155 0.739792 170 2.9375C159.195 7.54362 149.559 18.3632 137 18L138 21L132 20L128 23L127 20L126 20L126 23L125 23L124 21L123 21C118.258 24.7365 103.903 30.2395 98 30C98 33.3674 92.6299 32.6144 89.8333 33.5C82.583 35.7959 72.9141 40.3938 65 37.8333C62.1295 36.9046 62.1735 34.3734 59 34L59 25C62.4202 24.1752 65.2351 23.6174 66 20C75.4857 18.3143 95.3971 12.9817 96 2L57 2C49.7386 2 43.6065 0.873871 38 6L39 2L2 2z"/>
<path style="fill:#ffffff; stroke:none;" d="M62.6667 3.33333L63.3333 3.66667L62.6667 3.33333M68.6667 3.33333L69.3333 3.66667L68.6667 3.33333M65.6667 4.33333L66.3333 4.66667L65.6667 4.33333M62.6667 5.33333L63.3333 5.66667L62.6667 5.33333M58 7L59 8L58 7M47.6667 11.3333L48.3333 11.6667L47.6667 11.3333M41 16L45 20L41 16M56 24L56 25L66 22L56 24z"/>
<path style="fill:#000000; stroke:none;" d="M121 21L122 22L121 21M65 24L66 25L65 24z"/>
<path style="fill:#ffffff; stroke:none;" d="M51 25L52 28L53 28L51 25M54 25L55 26L54 25z"/>
<path style="fill:#000000; stroke:none;" d="M62.6667 25.3333L63.3333 25.6667L62.6667 25.3333z"/>
<path style="fill:#ffffff; stroke:none;" d="M56 26L55 31L56 31L56 26z"/>
<path style="fill:#000000; stroke:none;" d="M182 28L183 29L182 28z"/>
<path style="fill:#ffffff; stroke:none;" d="M49 30L50 31L49 30M36.6667 31.3333L37.3333 31.6667L36.6667 31.3333M48 33L49 34L48 33z"/>
<path style="fill:#000000; stroke:none;" d="M82.6667 34.3333L83.3333 34.6667L82.6667 34.3333z"/>
<path style="fill:#ffffff; stroke:none;" d="M177 34L178 35L177 34M172 36L173 37L172 36M170 37L171 38L170 37M202 37L201 39L202 37M98 39L99 40L98 39M165 45L177 42C175.813 36.4885 166.625 41.6949 165 45M186 47L186 48L191 48L191 49L179 49L179 50L182 51L169 58L170 72C178.969 70.6754 202.328 66.0243 207 58L188 63L188 62C191.92 61.6888 195.809 61.0874 197 57C200.081 57.312 202.242 58.4674 203 55L204 55L207 57L206 44L195 48L207 41C200.944 38.6599 191.548 44.4063 186 47M194 41L195 42L194 41M189 42L189 43L192 43L189 42M183 44L183 45L188 44L183 44M176 47L176 48L180 47L176 47z"/>
<path style="fill:#000000; stroke:none;" d="M193 46L194 47L193 46z"/>
<path style="fill:#ffffff; stroke:none;" d="M170 49L170 50L174 50L170 49z"/>
<path style="fill:#000000; stroke:none;" d="M193 49L195 51L193 49z"/>
<path style="fill:#ffffff; stroke:none;" d="M167 50L167 51L169 54L170 54L167 50z"/>
<path style="fill:#000000; stroke:none;" d="M199 50L200 51L199 50M197 51L198 52L197 51z"/>
<path style="fill:#ffffff; stroke:none;" d="M45 53L46 54L45 53z"/>
<path style="fill:#000000; stroke:none;" d="M194 53L195 54L194 53M197.667 54.3333L198.333 54.6667L197.667 54.3333M176 55L177 56L176 55M186 55L187 56L186 55M201 56L202 57L201 56z"/>
<path style="fill:#ffffff; stroke:none;" d="M81 57L82 58L81 57M86 58L85 62L86 62L86 58z"/>
<path style="fill:#000000; stroke:none;" d="M194 58L193 60L194 58z"/>
<path style="fill:#ffffff; stroke:none;" d="M82.3333 60.6667L82.6667 61.3333L82.3333 60.6667z"/>
<path style="fill:#000000; stroke:none;" d="M189.667 60.3333L190.333 60.6667L189.667 60.3333M186.667 61.3333L187.333 61.6667L186.667 61.3333z"/>
<path style="fill:#ffffff; stroke:none;" d="M87.3333 62.6667L87.6667 63.3333L87.3333 62.6667z"/>
<path style="fill:#000000; stroke:none;" d="M171 70L188 64C183.487 62.7482 173.811 66.2569 171 70M194 63L195 64L194 63z"/>
<path style="fill:#ffffff; stroke:none;" d="M67 65L68 66L67 65M85 66L86 67L85 66M201.667 66.3333L202.333 66.6667L201.667 66.3333M195.667 68.3333L196.333 68.6667L195.667 68.3333M186 71L187 72L186 71M183.667 72.3333L184.333 72.6667L183.667 72.3333M69 73L69 74L74 75L74 74L69 73M66 74L67 75L66 74M177 74L178 75L177 74M75 75L76 76L75 75M69 76L70 77L69 76M77 76L78 77L77 76M169 76L170 77L169 76M66 77L65 79L66 77M90 81L78 87L80 89L78 89L80 92L77 95L86 95C89.232 94.4613 90.7246 93.1017 90 96C94.8563 91.9737 93.2762 85.5335 90 81z"/>
<path style="fill:#000000; stroke:none;" d="M89 83L90 84L89 83z"/>
<path style="fill:#ffffff; stroke:none;" d="M140 84L146 87L140 84z"/>
<path style="fill:#000000; stroke:none;" d="M85 85L85 86L88 86L85 85M82.6667 86.3333L83.3333 86.6667L82.6667 86.3333M91 87L92 88L91 87M81.6667 89.3333L82.3333 89.6667L81.6667 89.3333M91 90L92 91L91 90M82.6667 91.3333L83.3333 91.6667L82.6667 91.3333M86 92L86 93L89 93L86 92M177 92L178 93L177 92M207 93L208 94L207 93z"/>
<path style="fill:#ffffff; stroke:none;" d="M83.6667 95.3333L84.3333 95.6667L83.6667 95.3333z"/>
<path style="fill:#000000; stroke:none;" d="M169 95L170 96L169 95z"/>
<path style="fill:#ffffff; stroke:none;" d="M88 96L89 97L88 96z"/>
<path style="fill:#000000; stroke:none;" d="M156 96L155 105C158.804 102.4 160.133 98.9799 156 96z"/>
<path style="fill:#ffffff; stroke:none;" d="M6 98L6 99L11 100L13 97L6 98M78.3333 97.6667L78.6667 98.3333L78.3333 97.6667M86 97L87 98L86 97M82 98L83 99L82 98M18 99L18 101L20 99L18 99M30.6667 100.333L31.3333 100.667L30.6667 100.333M24 101L23 103L24 101M70 102L71 103L70 102M201 104L203 120L207 120L207 103L201 104M125 118L128 126L124 126L124 127L133 129C134.839 120.927 133.839 118.08 125 118M206 122L204 132L207 132L206 122M204 133L205 145L200 146L200 147L207 148L207 133L204 133M161 138L166 145L166 141L161 138M138 139L139 140L138 139M153 143L156 144L158 139L153 143M140 141L141 142L140 141M49 142L50 143L49 142M138 142L139 143L138 142z"/>
<path style="fill:#000000; stroke:none;" d="M175.667 142.333L176.333 142.667L175.667 142.333z"/>
<path style="fill:#ffffff; stroke:none;" d="M189 152L198 147C193.397 146.145 191.347 148.162 189 152M188 148L189 149L188 148M146 149L141 156C145.866 156.417 147.993 153.737 148 149L146 149M161 149L164 157L161 149M180 149L179 154L182 149L180 149M171 150L171 155L172 155L173 150L171 150M133 155L136 153L133 155M131 155L132 156L131 155M201 158L201 167C205.076 164.621 206.686 161.675 207 157L201 158M160 166L160 169L162 166L160 166M199 169L200 170L199 169M160 170L161 173L162 173L160 170M204 183L205 184L204 183M151.667 199.333L152.333 199.667L151.667 199.333M154 203L155 204L154 203z"/>
</svg>
